<?xml version="1.0" encoding="UTF-8" standalone="no"?>
<!-- Created with Inkscape (http://www.inkscape.org/) -->

<svg
   xmlns:dc="http://purl.org/dc/elements/1.1/"
   xmlns:cc="http://creativecommons.org/ns#"
   xmlns:rdf="http://www.w3.org/1999/02/22-rdf-syntax-ns#"
   xmlns:svg="http://www.w3.org/2000/svg"
   xmlns="http://www.w3.org/2000/svg"
   xmlns:sodipodi="http://sodipodi.sourceforge.net/DTD/sodipodi-0.dtd"
   xmlns:inkscape="http://www.inkscape.org/namespaces/inkscape"
   width="210mm"
   height="297mm"
   viewBox="0 0 210 297"
   version="1.1"
   id="svg8"
   inkscape:version="0.92.5 (2060ec1f9f, 2020-04-08)"
   sodipodi:docname="Aloha.svg">
  <defs
     id="defs2">
    <inkscape:perspective
       sodipodi:type="inkscape:persp3d"
       inkscape:vp_x="0 : 148.5 : 1"
       inkscape:vp_y="0 : 1000 : 0"
       inkscape:vp_z="210 : 148.5 : 1"
       inkscape:persp3d-origin="105 : 99 : 1"
       id="perspective993" />
  </defs>
  <sodipodi:namedview
     id="base"
     pagecolor="#ffffff"
     bordercolor="#666666"
     borderopacity="1.0"
     inkscape:pageopacity="0.0"
     inkscape:pageshadow="2"
     inkscape:zoom="1.4142136"
     inkscape:cx="892.55972"
     inkscape:cy="-68.600329"
     inkscape:document-units="mm"
     inkscape:current-layer="layer1"
     showgrid="false"
     inkscape:snap-center="false"
     inkscape:window-width="1848"
     inkscape:window-height="1016"
     inkscape:window-x="72"
     inkscape:window-y="27"
     inkscape:window-maximized="1" />
  <metadata
     id="metadata5">
    <rdf:RDF>
      <cc:Work
         rdf:about="">
        <dc:format>image/svg+xml</dc:format>
        <dc:type
           rdf:resource="http://purl.org/dc/dcmitype/StillImage" />
        <dc:title />
      </cc:Work>
    </rdf:RDF>
  </metadata>
  <g
     inkscape:label="Ebene 1"
     inkscape:groupmode="layer"
     id="layer1">
    <path
       sodipodi:type="star"
       style="fill:#41b883;fill-opacity:1;stroke:#ff0000;stroke-width:0;stroke-linejoin:miter;stroke-miterlimit:0;stroke-dasharray:none"
       id="path1011"
       sodipodi:sides="3"
       sodipodi:cx="28.524595"
       sodipodi:cy="288.25446"
       sodipodi:r1="17.358377"
       sodipodi:r2="8.6791887"
       sodipodi:arg1="0.52359878"
       sodipodi:arg2="1.5707963"
       inkscape:flatsided="false"
       inkscape:rounded="0"
       inkscape:randomized="0"
       d="m 43.557391,296.93364 -15.032796,0 -15.032796,0 7.516398,-13.01878 7.516398,-13.01878 7.516398,13.01878 z"
       inkscape:transform-center-y="-9.7180429"
       transform="matrix(2.2492262,0,0,2.239388,-16.74575,-367.94964)" />
    <path
       sodipodi:type="star"
       style="fill:#41b883;fill-opacity:1;stroke:#ff0000;stroke-width:0;stroke-linejoin:miter;stroke-miterlimit:0;stroke-dasharray:none"
       id="path1011-3"
       sodipodi:sides="3"
       sodipodi:cx="28.524595"
       sodipodi:cy="288.25446"
       sodipodi:r1="17.358377"
       sodipodi:r2="8.6791887"
       sodipodi:arg1="0.52359878"
       sodipodi:arg2="1.5707963"
       inkscape:flatsided="false"
       inkscape:rounded="0"
       inkscape:randomized="0"
       d="m 43.557391,296.93364 -15.032796,0 -15.032796,0 7.516398,-13.01878 7.516398,-13.01878 7.516398,13.01878 z"
       inkscape:transform-center-y="-7.4942854"
       transform="matrix(1.7345389,0,0,1.726952,-2.1287764,-215.79016)"
       inkscape:transform-center-x="1.0116819e-06" />
    <g
       id="g16"
       transform="matrix(0.26458333,0,0,0.26458333,-39.158333,14.545952)">
      <path
         id="path10"
         d="M 204.8,0 H 256 L 128,220.8 0,0 H 50.56 97.92 L 128,51.2 157.44,0 Z"
         inkscape:connector-curvature="0"
         style="fill:#41b883" />
      <path
         id="path12"
         d="M 0,0 128,220.8 256,0 H 204.8 L 128,132.48 50.56,0 Z"
         inkscape:connector-curvature="0"
         style="fill:#41b883" />
      <path
         id="path14"
         d="M 50.56,0 128,133.12 204.8,0 H 157.44 L 128,51.2 97.92,0 Z"
         inkscape:connector-curvature="0"
         style="fill:#35495e" />
    </g>
    <path
       style="fill:#41b883;stroke-width:0.26458332"
       inkscape:connector-curvature="0"
       d="m 51.692028,19.459642 h 13.54666 L 31.372024,77.879641 -2.4946425,19.459642 H 10.882691 23.413358 l 7.958666,13.546666 7.789333,-13.546666 z"
       id="path10-6" />
    <path
       style="fill:#41b883;stroke-width:0.26458332"
       inkscape:connector-curvature="0"
       d="m 22.835028,161.66286 -33.866678,-58.42001 -33.866664,58.42001 h 13.546659 l 20.320005,-35.05202 20.4893375,35.05202 z"
       id="path12-7" />
    <path
       style="fill:#35495e;stroke-width:0.26458332"
       inkscape:connector-curvature="0"
       d="m 164.93553,228.97121 -20.48933,-35.22133 -20.32,35.22133 h 12.53066 l 7.78934,-13.54666 7.95866,13.54666 z"
       id="path14-5" />
    <rect
       style="fill:none;fill-opacity:1;stroke:#ff0000;stroke-width:0.19744432;stroke-linejoin:miter;stroke-miterlimit:0;stroke-dasharray:none"
       id="rect57"
       width="66.802559"
       height="57.802555"
       x="-128.72519"
       y="107.33485"
       rx="2.9533117e-17" />
    <rect
       style="fill:none;stroke:#ff0000;stroke-width:0.20199999;stroke-linejoin:miter;stroke-miterlimit:0;stroke-dasharray:none"
       id="rect888"
       width="14.145932"
       height="23.9433"
       x="-128.72292"
       y="141.19182"
       rx="2.7755586e-17" />
    <rect
       style="fill:none;stroke:#ff0000;stroke-width:0.20200001;stroke-linejoin:miter;stroke-miterlimit:0;stroke-dasharray:none"
       id="rect888-3"
       width="14.145933"
       height="23.9433"
       x="-76.068565"
       y="141.19408"
       rx="2.7755586e-17" />
    <rect
       style="fill:none;stroke:#ff0000;stroke-width:0.18412815;stroke-linejoin:miter;stroke-miterlimit:0;stroke-dasharray:none"
       id="rect905"
       width="19.815872"
       height="22.317842"
       x="-105.23185"
       y="107.39668"
       rx="2.359541e-17" />
    <path
       style="fill:none;stroke:#000000;stroke-width:0.26458332px;stroke-linecap:butt;stroke-linejoin:miter;stroke-opacity:1"
       d="m 59.604069,169.9482 33.866666,-58.41999 33.866675,58.41999 h -13.37734 l -20.489335,-35.052 -20.320007,35.052 z"
       id="path907"
       inkscape:connector-curvature="0" />
    <path
       style="fill:none;stroke:#000000;stroke-width:0.26458332px;stroke-linecap:butt;stroke-linejoin:miter;stroke-opacity:1"
       d="M 13.4918,296.93365 81.225134,180.09367"
       id="path911"
       inkscape:connector-curvature="0" />
    <path
       style="fill:none;stroke:#000000;stroke-width:0.26458332px;stroke-linecap:butt;stroke-linejoin:miter;stroke-opacity:1"
       d="M 21.491451,296.93365 89.224788,180.09367"
       id="path911-5"
       inkscape:connector-curvature="0" />
    <path
       style="fill:none;stroke:#000000;stroke-width:0.26458332px;stroke-linecap:butt;stroke-linejoin:miter;stroke-opacity:1"
       d="M 81.225146,296.93365 13.491786,180.09367"
       id="path930"
       inkscape:connector-curvature="0" />
    <path
       style="fill:none;stroke:#000000;stroke-width:0.26458332px;stroke-linecap:butt;stroke-linejoin:miter;stroke-opacity:1"
       d="M 73.224805,296.93365 5.4914508,180.09367"
       id="path930-6"
       inkscape:connector-curvature="0" />
    <path
       style="fill:none;stroke:#000000;stroke-width:0.26458332px;stroke-linecap:butt;stroke-linejoin:miter;stroke-opacity:1"
       d="M 65.224806,296.93365 -2.5085492,180.09366"
       id="path930-6-2"
       inkscape:connector-curvature="0" />
    <path
       style="fill:none;stroke:#000000;stroke-width:0.26458332px;stroke-linecap:butt;stroke-linejoin:miter;stroke-opacity:1"
       d="M 29.491451,296.93365 97.22479,180.09367"
       id="path911-5-9"
       inkscape:connector-curvature="0" />
    <path
       style="fill:#41b883;fill-opacity:1;stroke:#000000;stroke-width:0;stroke-linecap:butt;stroke-linejoin:miter;stroke-miterlimit:4;stroke-dasharray:none;stroke-opacity:1"
       d="m -28.725361,254.66759 -4.517037,7.78918 h 7.892025 l 4.517552,-7.78918 z m 42.954482,0 4.517038,7.78918 h 7.983493 l -4.517038,-7.78918 z"
       id="path1079"
       inkscape:connector-curvature="0" />
    <path
       style="fill:#35495e;fill-opacity:1;stroke:#000000;stroke-width:0;stroke-linecap:butt;stroke-linejoin:miter;stroke-miterlimit:4;stroke-dasharray:none;stroke-opacity:1"
       d="m 61.454292,236.72855 25.866118,-44.60547 25.86612,44.60544 -7.95578,0.0657 -17.905943,-30.87836 -17.881274,30.82507 z"
       id="path1081"
       inkscape:connector-curvature="0" />
    <path
       style="fill:#41b883;fill-opacity:1;stroke:#000000;stroke-width:0;stroke-linecap:butt;stroke-linejoin:miter;stroke-miterlimit:4;stroke-dasharray:none;stroke-opacity:1"
       d="m 99.060775,220.33609 33.812165,-58.3082 33.81215,58.3082 -7.99023,-0.0117 -25.86612,-44.60547 -25.87687,44.61785 z"
       id="path1079-9"
       inkscape:connector-curvature="0" />
    <path
       style="fill:#35495e;fill-opacity:1;stroke:#000000;stroke-width:0;stroke-linecap:butt;stroke-linejoin:miter;stroke-miterlimit:4;stroke-dasharray:none;stroke-opacity:1"
       d="m -85.063582,310.05143 25.866117,-44.60547 25.866117,44.60544 -7.955778,0.0657 -17.905941,-30.87836 -17.881274,30.82507 z"
       id="path1081-3"
       inkscape:connector-curvature="0" />
    <path
       style="fill:#35495e;fill-opacity:1;stroke:#000000;stroke-width:0;stroke-linecap:butt;stroke-linejoin:miter;stroke-miterlimit:4;stroke-dasharray:none;stroke-opacity:1"
       d="m -299.66801,355.14263 4.51703,-7.78917 h 50.93797 l 4.51704,7.78917 z"
       id="path1156"
       inkscape:connector-curvature="0" />
    <path
       style="fill:#41b883;fill-opacity:1;stroke:#000000;stroke-width:0;stroke-linecap:butt;stroke-linejoin:miter;stroke-miterlimit:4;stroke-dasharray:none;stroke-opacity:1"
       d="m 83.106556,262.47492 -4.533574,7.81865 h 7.892541 l 4.534607,-7.81865 z m 33.869764,0 4.53358,7.81865 h 7.984 l -4.53409,-7.81865 z"
       id="path1079-9-2"
       inkscape:connector-curvature="0" />
    <path
       style="fill:#41b883;fill-opacity:1;stroke:#000000;stroke-width:0;stroke-linecap:butt;stroke-linejoin:miter;stroke-miterlimit:4;stroke-dasharray:none;stroke-opacity:1"
       d="m -295.15098,347.35346 4.53358,-7.81865 h 41.85325 l 4.53409,7.81865 z"
       id="path1192"
       inkscape:connector-curvature="0" />
    <path
       style="fill:#35495e;fill-opacity:1;stroke:#000000;stroke-width:0;stroke-linecap:butt;stroke-linejoin:miter;stroke-miterlimit:4;stroke-dasharray:none;stroke-opacity:1"
       d="m 81.074938,284.936 25.866122,-44.60548 25.86611,44.60545 -7.95578,0.0657 -17.90594,-30.87836 -17.881271,30.82508 z"
       id="path1081-1"
       inkscape:connector-curvature="0" />
    <path
       style="fill:#41b883;fill-opacity:1;stroke:#000000;stroke-width:0;stroke-linecap:butt;stroke-linejoin:miter;stroke-miterlimit:4;stroke-dasharray:none;stroke-opacity:1"
       d="m 47.863901,215.57358 33.812161,-58.3082 33.812158,58.3082 -7.99023,-0.0117 -25.866121,-44.60547 -25.876875,44.61785 z"
       id="path1079-9-8"
       inkscape:connector-curvature="0" />
    <path
       sodipodi:type="star"
       style="fill:#41b883;fill-opacity:1;stroke:#ff0000;stroke-width:0;stroke-linejoin:miter;stroke-miterlimit:0;stroke-dasharray:none"
       id="path1011-6"
       sodipodi:sides="3"
       sodipodi:cx="28.524595"
       sodipodi:cy="288.25446"
       sodipodi:r1="17.358377"
       sodipodi:r2="8.6791887"
       sodipodi:arg1="0.52359878"
       sodipodi:arg2="1.5707963"
       inkscape:flatsided="false"
       inkscape:rounded="0"
       inkscape:randomized="0"
       d="m 43.557391,296.93364 -15.032796,0 -15.032796,0 7.516398,-13.01878 7.516398,-13.01878 7.516398,13.01878 z"
       inkscape:transform-center-y="-5.1883984"
       transform="matrix(1.2008468,0,0,1.1955942,13.102737,-58.012139)" />
    <path
       sodipodi:type="star"
       style="fill:#41b883;fill-opacity:1;stroke:#ff0000;stroke-width:0;stroke-linejoin:miter;stroke-miterlimit:0;stroke-dasharray:none"
       id="path1011-62"
       sodipodi:sides="3"
       sodipodi:cx="28.524595"
       sodipodi:cy="288.25446"
       sodipodi:r1="17.358377"
       sodipodi:r2="8.6791887"
       sodipodi:arg1="0.52359878"
       sodipodi:arg2="1.5707963"
       inkscape:flatsided="false"
       inkscape:rounded="0"
       inkscape:randomized="0"
       d="m 43.557391,296.93364 -15.032796,0 -15.032796,0 7.516398,-13.01878 7.516398,-13.01878 7.516398,13.01878 z"
       inkscape:transform-center-y="-9.7180429"
       transform="matrix(2.2492262,0,0,2.239388,-82.867134,-347.49516)" />
    <path
       sodipodi:type="star"
       style="fill:#35495e;fill-opacity:1;stroke:#ff0000;stroke-width:0;stroke-linejoin:miter;stroke-miterlimit:0;stroke-dasharray:none"
       id="path1011-3-9"
       sodipodi:sides="3"
       sodipodi:cx="28.524595"
       sodipodi:cy="288.25446"
       sodipodi:r1="17.358377"
       sodipodi:r2="8.6791887"
       sodipodi:arg1="0.52359878"
       sodipodi:arg2="1.5707963"
       inkscape:flatsided="false"
       inkscape:rounded="0"
       inkscape:randomized="0"
       d="m 43.557391,296.93364 -15.032796,0 -15.032796,0 7.516398,-13.01878 7.516398,-13.01878 7.516398,13.01878 z"
       inkscape:transform-center-y="-7.4942854"
       transform="matrix(1.7345389,0,0,1.726952,-68.25016,-195.33569)"
       inkscape:transform-center-x="1.0116819e-06" />
    <path
       sodipodi:type="star"
       style="fill:#41b883;fill-opacity:1;stroke:#ff0000;stroke-width:0;stroke-linejoin:miter;stroke-miterlimit:0;stroke-dasharray:none"
       id="path1011-6-1"
       sodipodi:sides="3"
       sodipodi:cx="28.524595"
       sodipodi:cy="288.25446"
       sodipodi:r1="17.358377"
       sodipodi:r2="8.6791887"
       sodipodi:arg1="0.52359878"
       sodipodi:arg2="1.5707963"
       inkscape:flatsided="false"
       inkscape:rounded="0"
       inkscape:randomized="0"
       d="m 43.557391,296.93364 -15.032796,0 -15.032796,0 7.516398,-13.01878 7.516398,-13.01878 7.516398,13.01878 z"
       inkscape:transform-center-y="-5.1883984"
       transform="matrix(1.2008468,0,0,1.1955942,-53.018647,-37.557667)" />
    <path
       style="fill:#41b883;fill-opacity:1;stroke:#ff0000;stroke-width:0;stroke-linejoin:miter;stroke-miterlimit:0;stroke-dasharray:none"
       d="M 26.515625 1280.3242 L -37.380859 1390.5137 L -101.27734 1500.7012 L -72.277344 1500.7012 L -23.001953 1415.7266 L 26.273438 1330.7539 L 75.548828 1415.7266 L 124.82422 1500.7012 L 154.31055 1500.7012 L 90.414062 1390.5137 L 26.515625 1280.3242 z "
       id="path1011-62-2"
       transform="scale(0.26458333)" />
    <path
       style="fill:#35495e;fill-opacity:1;stroke:#ff0000;stroke-width:0;stroke-linejoin:miter;stroke-miterlimit:0;stroke-dasharray:none"
       d="m 6.9519627,352.09501 -13.0374467,22.48287 -13.037963,22.48286 h 8.031033 l 9.0263238,-15.56546 9.0258052,-15.56494 9.026321,15.56494 9.025805,15.56546 h 8.015015 L 19.98941,374.57788 Z"
       id="path1011-3-9-3"
       inkscape:connector-curvature="0" />
    <g
       id="g1113"
       transform="translate(94.292691,-92.047626)">
      <path
         inkscape:connector-curvature="0"
         id="path1011-62-9-2"
         d="m 139.13004,365.87267 -4.53409,7.81862 h 51.05837 l -4.53409,-7.81862 z"
         style="fill:#35495e;fill-opacity:1;stroke:#ff0000;stroke-width:0;stroke-linejoin:miter;stroke-miterlimit:0;stroke-dasharray:none" />
      <path
         inkscape:connector-curvature="0"
         id="path1011-62-9"
         d="m 134.59595,373.69129 -4.51704,7.7892 h 60.09245 l -4.51704,-7.7892 z"
         style="fill:#41b883;fill-opacity:1;stroke:#ff0000;stroke-width:0;stroke-linejoin:miter;stroke-miterlimit:0;stroke-dasharray:none" />
      <path
         id="path1011-62-2-6"
         d="m 160.07266,329.49377 -16.90595,29.1543 -16.90594,29.15378 h 7.67291 l 13.03745,-22.48287 13.03745,-22.48236 13.03745,22.48236 13.03744,22.48287 h 7.80159 l -16.90594,-29.15378 z"
         style="fill:#41b883;fill-opacity:1;stroke:#ff0000;stroke-width:0;stroke-linejoin:miter;stroke-miterlimit:0;stroke-dasharray:none"
         inkscape:connector-curvature="0" />
      <path
         inkscape:connector-curvature="0"
         id="path1011-3-9-3-1"
         d="m 160.00903,342.83634 -13.03745,22.48287 -13.03796,22.48286 h 8.03103 l 9.02632,-15.56546 9.02581,-15.56494 9.02632,15.56494 9.02581,15.56546 h 8.01501 l -13.03744,-22.48286 z"
         style="fill:#35495e;fill-opacity:1;stroke:#ff0000;stroke-width:0;stroke-linejoin:miter;stroke-miterlimit:0;stroke-dasharray:none" />
    </g>
  </g>
</svg>
