<?xml version="1.0" encoding="UTF-8" standalone="no"?>
<!-- Generated by IcoMoon.io -->

<svg
   version="1.1"
   width="18"
   height="18"
   viewBox="0 0 18 18"
   id="svg871"
   sodipodi:docname="cog.svg"
   inkscape:version="1.2 (56b05e47e7, 2022-06-09, custom)"
   xml:space="preserve"
   inkscape:export-filename="../28d9826b/cog.svg"
   inkscape:export-xdpi="96"
   inkscape:export-ydpi="96"
   xmlns:inkscape="http://www.inkscape.org/namespaces/inkscape"
   xmlns:sodipodi="http://sodipodi.sourceforge.net/DTD/sodipodi-0.dtd"
   xmlns="http://www.w3.org/2000/svg"
   xmlns:svg="http://www.w3.org/2000/svg"
   xmlns:rdf="http://www.w3.org/1999/02/22-rdf-syntax-ns#"
   xmlns:cc="http://creativecommons.org/ns#"
   xmlns:dc="http://purl.org/dc/elements/1.1/"><metadata
     id="metadata877"><rdf:RDF><cc:Work
         rdf:about=""><dc:format>image/svg+xml</dc:format><dc:type
           rdf:resource="http://purl.org/dc/dcmitype/StillImage" /></cc:Work></rdf:RDF></metadata><defs
     id="defs875" /><sodipodi:namedview
     pagecolor="#ffffff"
     bordercolor="#666666"
     borderopacity="1"
     objecttolerance="10"
     gridtolerance="10"
     guidetolerance="10"
     inkscape:pageopacity="0"
     inkscape:pageshadow="2"
     inkscape:window-width="1848"
     inkscape:window-height="1136"
     id="namedview873"
     showgrid="false"
     inkscape:zoom="36.298307"
     inkscape:cx="3.9120282"
     inkscape:cy="9.0775583"
     inkscape:window-x="72"
     inkscape:window-y="27"
     inkscape:window-maximized="1"
     inkscape:current-layer="svg871"
     inkscape:showpageshadow="2"
     inkscape:pagecheckerboard="0"
     inkscape:deskcolor="#d1d1d1" /><g
     id="icomoon-ignore"
     transform="translate(0,-1006)" /><g
     id="g226"
     transform="matrix(0.01757813,0,0,0.01759352,0,-0.00784671)"><g
       id="icomoon-ignore-6" /><path
       d="m 512,0.446 q 29.435,0 66.007,4.46 l 33.896,135.582 4.46,0.892 q 43.707,12.488 83.846,34.787 l 4.46,1.784 119.526,-71.359 q 54.411,42.815 92.767,93.658 l -71.359,119.526 2.676,4.46 q 22.299,39.248 34.787,82.954 l 0.892,5.352 135.582,33.896 q 4.46,38.355 4.46,65.114 0,30.327 -4.46,66.007 l -135.582,33.896 -0.892,5.352 q -13.38,43.707 -34.787,82.954 l -2.676,4.46 71.359,119.526 q -42.815,54.411 -92.767,93.658 l -119.526,-72.251 -4.46,2.676 q -39.248,22.299 -83.846,34.787 l -4.46,1.784 -33.896,134.689 q -38.355,4.46 -66.007,4.46 -29.435,0 -66.007,-4.46 l -33.896,-134.689 -4.46,-1.784 Q 363.93,870.129 323.791,847.83 l -4.46,-2.676 -119.526,72.251 Q 146.286,874.59 107.038,823.747 l 71.359,-119.526 -2.676,-4.46 Q 153.422,659.622 141.825,616.807 L 140.041,611.455 5.352,577.559 Q 0,540.096 0,511.552 0,482.117 5.352,446.438 l 134.689,-33.896 1.784,-5.352 q 11.595,-42.815 33.896,-82.954 l 2.676,-4.46 -71.359,-119.526 q 41.924,-54.411 93.658,-93.658 l 118.633,71.359 4.46,-1.784 q 40.139,-22.299 83.846,-34.787 l 4.46,-0.892 33.896,-135.582 q 38.355,-4.46 66.007,-4.46 z m 0,320.222 q -79.387,0 -135.582,56.195 -56.195,56.195 -56.195,135.135 0,78.94 56.195,135.135 56.195,56.195 135.582,56.195 79.387,0 135.582,-56.195 56.195,-56.195 56.195,-135.135 0,-78.94 -56.195,-135.135 Q 591.387,320.668 512,320.668 Z"
       id="path216" /></g></svg>
