<?xml version="1.0" encoding="UTF-8" standalone="no"?>
<!-- Generated by IcoMoon.io -->

<svg
   version="1.1"
   width="18"
   height="18"
   viewBox="0 0 18 18"
   id="svg871"
   sodipodi:docname="double-angle-up.svg"
   inkscape:version="1.2.1 (ef4d3fba62, 2022-07-19, custom)"
   xml:space="preserve"
   xmlns:inkscape="http://www.inkscape.org/namespaces/inkscape"
   xmlns:sodipodi="http://sodipodi.sourceforge.net/DTD/sodipodi-0.dtd"
   xmlns="http://www.w3.org/2000/svg"
   xmlns:svg="http://www.w3.org/2000/svg"
   xmlns:rdf="http://www.w3.org/1999/02/22-rdf-syntax-ns#"
   xmlns:cc="http://creativecommons.org/ns#"
   xmlns:dc="http://purl.org/dc/elements/1.1/"><metadata
     id="metadata877"><rdf:RDF><cc:Work
         rdf:about=""><dc:format>image/svg+xml</dc:format><dc:type
           rdf:resource="http://purl.org/dc/dcmitype/StillImage" /></cc:Work></rdf:RDF></metadata><defs
     id="defs875" /><sodipodi:namedview
     pagecolor="#ffffff"
     bordercolor="#666666"
     borderopacity="1"
     objecttolerance="10"
     gridtolerance="10"
     guidetolerance="10"
     inkscape:pageopacity="0"
     inkscape:pageshadow="2"
     inkscape:window-width="1920"
     inkscape:window-height="1043"
     id="namedview873"
     showgrid="false"
     inkscape:zoom="26.1875"
     inkscape:cx="17.145585"
     inkscape:cy="10.73031"
     inkscape:window-x="1920"
     inkscape:window-y="0"
     inkscape:window-maximized="1"
     inkscape:current-layer="svg871"
     inkscape:showpageshadow="2"
     inkscape:pagecheckerboard="0"
     inkscape:deskcolor="#d1d1d1" /><g
     id="icomoon-ignore"
     transform="translate(0,-1006)" /><g
     id="g266"
     transform="matrix(0.03156311,0,0,0.03156311,-1.38884,-7.4489755)"><g
       id="icomoon-ignore-6" /><path
       d="m 614.286,749.714 q 0,7.429 -5.714,13.143 l -28.571,28.571 q -5.714,5.714 -13.143,5.714 -7.429,0 -13.143,-5.714 L 329.144,566.857 104.573,791.428 q -5.714,5.714 -13.143,5.714 -7.429,0 -13.143,-5.714 L 49.716,762.857 q -5.714,-5.714 -5.714,-13.143 0,-7.429 5.714,-13.143 L 316.002,470.285 q 5.714,-5.714 13.143,-5.714 7.429,0 13.143,5.714 l 266.286,266.286 q 5.714,5.714 5.714,13.143 z m 0,-219.428 q 0,7.429 -5.714,13.143 L 580.001,572 q -5.714,5.714 -13.143,5.714 -7.429,0 -13.143,-5.714 L 329.144,347.429 104.573,572 q -5.714,5.714 -13.143,5.714 -7.429,0 -13.143,-5.714 L 49.716,543.429 q -5.714,-5.714 -5.714,-13.143 0,-7.429 5.714,-13.143 L 316.002,250.857 q 5.714,-5.714 13.143,-5.714 7.429,0 13.143,5.714 l 266.286,266.286 q 5.714,5.714 5.714,13.143 z"
       id="path256" /></g></svg>
