<?xml version="1.0" encoding="UTF-8" standalone="no"?>
<!-- Generated by IcoMoon.io -->

<svg
   version="1.1"
   width="18"
   height="18"
   viewBox="0 0 18 18"
   id="svg871"
   sodipodi:docname="eye-close1.svg"
   inkscape:version="1.2 (56b05e47e7, 2022-06-09, custom)"
   xml:space="preserve"
   xmlns:inkscape="http://www.inkscape.org/namespaces/inkscape"
   xmlns:sodipodi="http://sodipodi.sourceforge.net/DTD/sodipodi-0.dtd"
   xmlns="http://www.w3.org/2000/svg"
   xmlns:svg="http://www.w3.org/2000/svg"
   xmlns:rdf="http://www.w3.org/1999/02/22-rdf-syntax-ns#"
   xmlns:cc="http://creativecommons.org/ns#"
   xmlns:dc="http://purl.org/dc/elements/1.1/"><metadata
     id="metadata877"><rdf:RDF><cc:Work
         rdf:about=""><dc:format>image/svg+xml</dc:format><dc:type
           rdf:resource="http://purl.org/dc/dcmitype/StillImage" /></cc:Work></rdf:RDF></metadata><defs
     id="defs875" /><sodipodi:namedview
     pagecolor="#ffffff"
     bordercolor="#666666"
     borderopacity="1"
     objecttolerance="10"
     gridtolerance="10"
     guidetolerance="10"
     inkscape:pageopacity="0"
     inkscape:pageshadow="2"
     inkscape:window-width="1920"
     inkscape:window-height="1043"
     id="namedview873"
     showgrid="false"
     inkscape:zoom="26.1875"
     inkscape:cx="0.45823389"
     inkscape:cy="10.539379"
     inkscape:window-x="1920"
     inkscape:window-y="0"
     inkscape:window-maximized="1"
     inkscape:current-layer="svg871"
     inkscape:showpageshadow="2"
     inkscape:pagecheckerboard="0"
     inkscape:deskcolor="#d1d1d1" /><g
     id="icomoon-ignore"
     transform="translate(0,-1006)" /><g
     id="g305"
     transform="matrix(0.01757813,0,0,0.0175781,-0.02634961,0.65854895)"><g
       id="icomoon-ignore-7" /><path
       d="m 318.642,688.822 44.574,-80.57 q -49.718,-35.998 -77.712,-90.858 -27.994,-54.86 -27.999,-116.002 0,-69.147 34.857,-128.572 Q 161.506,339.676 74.649,474.533 170.076,621.96 318.651,688.819 Z M 540.925,255.106 q 0,-11.42 -8.004,-19.424 -8.004,-8.004 -19.424,-8.004 -71.429,0 -122.571,51.142 -51.142,51.142 -51.142,122.571 0,11.42 8.004,19.424 8.004,8.004 19.424,8.004 11.42,0 19.424,-8.004 8.004,-8.004 8.004,-19.424 0,-49.143 34.857,-83.997 34.857,-34.854 83.997,-34.857 11.42,0 19.424,-8.004 8.004,-8.004 8.004,-19.424 z M 748.354,145.968 q 0,4.001 -0.584,5.141 -60.003,107.428 -179.999,323.427 -119.996,215.999 -180.573,324 l -27.999,50.859 q -5.725,9.142 -16.006,9.142 -6.864,0 -76.57,-40 -9.142,-5.725 -9.142,-16.006 0,-6.864 25.149,-49.718 Q 200.917,715.671 132.062,653.954 63.207,592.237 12.919,513.955 1.499,496.244 1.499,474.522 q 0,-21.722 11.42,-39.433 87.429,-134.286 217.143,-211.999 129.714,-77.713 283.429,-77.712 50.859,0 102.861,9.725 l 30.855,-55.425 q 5.725,-9.142 16.006,-9.142 2.863,0 10.282,3.418 7.419,3.418 17.711,8.865 10.292,5.447 18.858,10.564 8.566,5.117 18.008,10.564 9.442,5.447 11.143,6.566 9.142,5.725 9.142,15.423 z m 21.143,255.427 q 0,79.43 -45.141,144.859 -45.141,65.429 -119.429,94 l 160,-286.857 q 4.57,25.711 4.57,48 z m 256.002,73.144 q 0,20.008 -11.42,39.433 -22.287,36.571 -62.285,82.856 -85.714,98.284 -198.568,152.568 -112.854,54.284 -239.713,54.285 l 42.284,-75.43 q 121.144,-10.282 224.285,-78.29 103.141,-68.008 172.286,-175.429 -65.711,-102.285 -161.146,-168 l 35.998,-64.004 q 54.285,36.571 104.285,87.429 50,50.858 82.572,105.143 11.42,19.424 11.42,39.433 z"
       id="path295" /></g></svg>
