<?xml version="1.0" encoding="UTF-8" standalone="no"?>
<!-- Generated by IcoMoon.io -->

<svg
   version="1.1"
   width="18"
   height="18"
   viewBox="0 0 18 18"
   id="svg871"
   sodipodi:docname="eye-open1.svg"
   inkscape:version="1.2 (56b05e47e7, 2022-06-09, custom)"
   xml:space="preserve"
   xmlns:inkscape="http://www.inkscape.org/namespaces/inkscape"
   xmlns:sodipodi="http://sodipodi.sourceforge.net/DTD/sodipodi-0.dtd"
   xmlns="http://www.w3.org/2000/svg"
   xmlns:svg="http://www.w3.org/2000/svg"
   xmlns:rdf="http://www.w3.org/1999/02/22-rdf-syntax-ns#"
   xmlns:cc="http://creativecommons.org/ns#"
   xmlns:dc="http://purl.org/dc/elements/1.1/"><metadata
     id="metadata877"><rdf:RDF><cc:Work
         rdf:about=""><dc:format>image/svg+xml</dc:format><dc:type
           rdf:resource="http://purl.org/dc/dcmitype/StillImage" /></cc:Work></rdf:RDF></metadata><defs
     id="defs875" /><sodipodi:namedview
     pagecolor="#ffffff"
     bordercolor="#666666"
     borderopacity="1"
     objecttolerance="10"
     gridtolerance="10"
     guidetolerance="10"
     inkscape:pageopacity="0"
     inkscape:pageshadow="2"
     inkscape:window-width="1920"
     inkscape:window-height="1043"
     id="namedview873"
     showgrid="false"
     inkscape:zoom="9.2586795"
     inkscape:cx="-5.1843246"
     inkscape:cy="7.7764869"
     inkscape:window-x="1920"
     inkscape:window-y="0"
     inkscape:window-maximized="1"
     inkscape:current-layer="svg871"
     inkscape:showpageshadow="2"
     inkscape:pagecheckerboard="0"
     inkscape:deskcolor="#d1d1d1" /><g
     id="icomoon-ignore"
     transform="translate(0,-1006)" /><g
     id="g250"
     transform="matrix(0.01752671,0,0,0.01752691,-1.7526709e-5,0.68479724)"><g
       id="icomoon-ignore-6" /><path
       d="M 953.646,474.431 Q 866.534,339.176 735.292,272.123 q 34.959,59.601 34.959,128.952 0,106.025 -75.367,181.39 -75.367,75.365 -181.39,75.367 -106.023,0.002 -181.39,-75.367 -75.367,-75.369 -75.367,-181.39 0,-69.35 34.959,-128.952 -131.243,67.052 -218.354,202.308 76.223,117.492 191.132,187.121 114.909,69.629 249.018,69.633 134.109,0.004 249.018,-69.633 114.909,-69.637 191.132,-187.121 z M 541.004,254.353 q 0,-11.454 -8.027,-19.481 -8.027,-8.027 -19.481,-8.027 -71.639,0 -122.932,51.293 -51.293,51.293 -51.293,122.932 0,11.454 8.027,19.481 8.027,8.027 19.481,8.027 11.454,0 19.481,-8.027 8.027,-8.027 8.027,-19.481 0,-49.288 34.959,-84.246 34.959,-34.958 84.246,-34.959 11.454,0 19.481,-8.027 Q 541,265.811 541,254.357 Z m 486.001,220.078 q 0,19.481 -11.454,39.549 Q 935.316,645.795 799.773,725.169 664.23,804.543 513.503,804.546 362.776,804.549 227.233,724.882 91.69,645.215 11.455,513.974 0.001,493.906 0.001,474.425 q 0,-19.481 11.454,-39.549 80.235,-131.243 215.778,-210.908 135.543,-79.665 286.27,-79.664 150.727,0.001 286.27,79.664 135.543,79.663 215.778,210.908 11.454,20.068 11.454,39.549 z"
       id="path240" /></g></svg>
