<?xml version="1.0" encoding="UTF-8" standalone="no"?>
<!-- Generated by IcoMoon.io -->

<svg
   version="1.1"
   width="18"
   height="18"
   viewBox="0 0 18 18"
   id="svg871"
   sodipodi:docname="lock1.svg"
   inkscape:version="1.2 (56b05e47e7, 2022-06-09, custom)"
   xml:space="preserve"
   xmlns:inkscape="http://www.inkscape.org/namespaces/inkscape"
   xmlns:sodipodi="http://sodipodi.sourceforge.net/DTD/sodipodi-0.dtd"
   xmlns="http://www.w3.org/2000/svg"
   xmlns:svg="http://www.w3.org/2000/svg"
   xmlns:rdf="http://www.w3.org/1999/02/22-rdf-syntax-ns#"
   xmlns:cc="http://creativecommons.org/ns#"
   xmlns:dc="http://purl.org/dc/elements/1.1/"><metadata
     id="metadata877"><rdf:RDF><cc:Work
         rdf:about=""><dc:format>image/svg+xml</dc:format><dc:type
           rdf:resource="http://purl.org/dc/dcmitype/StillImage" /></cc:Work></rdf:RDF></metadata><defs
     id="defs875" /><sodipodi:namedview
     pagecolor="#ffffff"
     bordercolor="#666666"
     borderopacity="1"
     objecttolerance="10"
     gridtolerance="10"
     guidetolerance="10"
     inkscape:pageopacity="0"
     inkscape:pageshadow="2"
     inkscape:window-width="1920"
     inkscape:window-height="1043"
     id="namedview873"
     showgrid="false"
     inkscape:zoom="26.1875"
     inkscape:cx="8.7828161"
     inkscape:cy="8.9737469"
     inkscape:window-x="1920"
     inkscape:window-y="0"
     inkscape:window-maximized="1"
     inkscape:current-layer="svg871"
     inkscape:showpageshadow="2"
     inkscape:pagecheckerboard="0"
     inkscape:deskcolor="#d1d1d1" /><g
     id="icomoon-ignore"
     transform="translate(0,-1006)" /><g
     id="g141"
     transform="matrix(0.01757813,0,0,0.01757813,-3.96314e-5,1.7578125e-5)"><g
       id="icomoon-ignore-3" /><path
       d="m 493.034,717.353 v 0 c -22.097,-7.811 -37.924,-28.881 -37.924,-53.651 0,-31.421 25.469,-56.89 56.89,-56.89 31.421,0 56.89,25.469 56.89,56.89 0,24.769 -15.833,45.843 -37.924,53.651 v 98.392 c 0,9.98 -8.486,18.618 -18.966,18.618 -10.164,0 -18.966,-8.339 -18.966,-18.618 z m -265.48,-300.17 v 0 0 C 164.683,417.358 113.78,467.989 113.78,531.324 v 189.27 c 0,167.568 136.008,303.405 303.372,303.405 h 189.695 c 167.548,0 303.372,-136.179 303.372,-303.405 v -189.27 c 0,-62.93 -50.854,-113.956 -113.774,-114.141 V 284.414 C 796.445,127.332 668.777,-0.001 512,-0.001 c -157.093,0 -284.445,127.307 -284.445,284.415 v 132.769 z m 113.779,0 V 284.476 c 0,-94.496 76.411,-170.699 170.665,-170.699 94.063,0 170.665,76.426 170.665,170.699 V 417.183 H 341.33 Z"
       id="path131" /></g></svg>
