<?xml version="1.0" encoding="UTF-8" standalone="no"?>
<!-- Generated by IcoMoon.io -->

<svg
   version="1.1"
   width="18"
   height="18"
   viewBox="0 0 18 18"
   id="svg871"
   sodipodi:docname="option-horizontal.svg"
   inkscape:version="1.2.1 (ef4d3fba62, 2022-07-19, custom)"
   xml:space="preserve"
   xmlns:inkscape="http://www.inkscape.org/namespaces/inkscape"
   xmlns:sodipodi="http://sodipodi.sourceforge.net/DTD/sodipodi-0.dtd"
   xmlns="http://www.w3.org/2000/svg"
   xmlns:svg="http://www.w3.org/2000/svg"
   xmlns:rdf="http://www.w3.org/1999/02/22-rdf-syntax-ns#"
   xmlns:cc="http://creativecommons.org/ns#"
   xmlns:dc="http://purl.org/dc/elements/1.1/"><metadata
     id="metadata877"><rdf:RDF><cc:Work
         rdf:about=""><dc:format>image/svg+xml</dc:format><dc:type
           rdf:resource="http://purl.org/dc/dcmitype/StillImage" /></cc:Work></rdf:RDF></metadata><defs
     id="defs875" /><sodipodi:namedview
     pagecolor="#ffffff"
     bordercolor="#666666"
     borderopacity="1"
     objecttolerance="10"
     gridtolerance="10"
     guidetolerance="10"
     inkscape:pageopacity="0"
     inkscape:pageshadow="2"
     inkscape:window-width="1920"
     inkscape:window-height="1043"
     id="namedview873"
     showgrid="false"
     inkscape:zoom="37.034718"
     inkscape:cx="10.584663"
     inkscape:cy="9.3965884"
     inkscape:window-x="1920"
     inkscape:window-y="0"
     inkscape:window-maximized="1"
     inkscape:current-layer="svg871"
     inkscape:showpageshadow="2"
     inkscape:pagecheckerboard="0"
     inkscape:deskcolor="#d1d1d1" /><g
     id="icomoon-ignore"
     transform="translate(0,-1006)" /><g
     id="g250"
     transform="matrix(0.01757814,0,0,0.01757814,0,-4.6652296e-4)"><g
       id="icomoon-ignore-6" /><path
       d="m 139.636,372.364 q 57.717,0 98.676,40.96 40.959,40.96 40.96,98.676 0.001,57.716 -40.96,98.676 -40.961,40.96 -98.676,40.96 -57.715,0 -98.676,-40.96 Q -0.001,569.716 0,512 q 0.001,-57.716 40.96,-98.676 40.959,-40.96 98.676,-40.96 z m 372.364,0 q 57.717,0 98.676,40.96 40.959,40.96 40.96,98.676 10e-4,57.716 -40.96,98.676 -40.961,40.96 -98.676,40.96 -57.715,0 -98.676,-40.96 -40.961,-40.96 -40.96,-98.676 0.001,-57.716 40.96,-98.676 40.959,-40.96 98.676,-40.96 z m 372.363,0 q 57.717,0 98.676,40.96 40.959,40.96 40.96,98.676 10e-4,57.716 -40.96,98.676 -40.961,40.96 -98.676,40.96 -57.715,0 -98.676,-40.96 -40.961,-40.96 -40.96,-98.676 10e-4,-57.716 40.96,-98.676 40.959,-40.96 98.676,-40.96 z"
       id="path240" /></g></svg>
