<?xml version="1.0" encoding="UTF-8" standalone="no"?>
<!-- Generated by IcoMoon.io -->

<svg
   version="1.1"
   width="18"
   height="18"
   viewBox="0 0 18 18"
   id="svg871"
   sodipodi:docname="plus.svg"
   inkscape:version="1.2.1 (ef4d3fba62, 2022-07-19, custom)"
   xml:space="preserve"
   xmlns:inkscape="http://www.inkscape.org/namespaces/inkscape"
   xmlns:sodipodi="http://sodipodi.sourceforge.net/DTD/sodipodi-0.dtd"
   xmlns="http://www.w3.org/2000/svg"
   xmlns:svg="http://www.w3.org/2000/svg"
   xmlns:rdf="http://www.w3.org/1999/02/22-rdf-syntax-ns#"
   xmlns:cc="http://creativecommons.org/ns#"
   xmlns:dc="http://purl.org/dc/elements/1.1/"><metadata
     id="metadata877"><rdf:RDF><cc:Work
         rdf:about=""><dc:format>image/svg+xml</dc:format><dc:type
           rdf:resource="http://purl.org/dc/dcmitype/StillImage" /></cc:Work></rdf:RDF></metadata><defs
     id="defs875" /><sodipodi:namedview
     pagecolor="#ffffff"
     bordercolor="#666666"
     borderopacity="1"
     objecttolerance="10"
     gridtolerance="10"
     guidetolerance="10"
     inkscape:pageopacity="0"
     inkscape:pageshadow="2"
     inkscape:window-width="1920"
     inkscape:window-height="1043"
     id="namedview873"
     showgrid="false"
     inkscape:zoom="18.517359"
     inkscape:cx="-5.6163517"
     inkscape:cy="11.880744"
     inkscape:window-x="1920"
     inkscape:window-y="0"
     inkscape:window-maximized="1"
     inkscape:current-layer="svg871"
     inkscape:showpageshadow="2"
     inkscape:pagecheckerboard="0"
     inkscape:deskcolor="#d1d1d1" /><g
     id="icomoon-ignore"
     transform="translate(0,-1006)" /><g
     id="g305"
     transform="matrix(0.01757811,0,0,0.01757811,0,-1.757811e-5)"><g
       id="icomoon-ignore-7" /><path
       d="m 418.909,0.001 h 186.183 q 19.549,0 33.047,13.498 13.498,13.498 13.498,33.047 v 325.819 h 325.819 q 19.549,0 33.047,13.498 13.498,13.498 13.498,33.047 v 186.183 q 0,19.549 -13.498,33.047 -13.498,13.498 -33.047,13.498 H 651.637 v 325.819 q 0,19.549 -13.498,33.047 -13.498,13.498 -33.047,13.498 H 418.909 q -19.549,0 -33.047,-13.498 -13.498,-13.498 -13.498,-33.047 V 651.638 H 46.545 q -19.549,0 -33.047,-13.498 Q 0,624.642 0,605.093 V 418.91 Q 0,399.361 13.498,385.863 26.996,372.365 46.545,372.365 H 372.364 V 46.546 q 0,-19.549 13.498,-33.047 Q 399.36,0.001 418.909,0.001 Z"
       id="path295" /></g></svg>
