<?xml version="1.0" encoding="UTF-8" standalone="no"?>
<!-- Generated by IcoMoon.io -->

<svg
   xmlns:dc="http://purl.org/dc/elements/1.1/"
   xmlns:cc="http://creativecommons.org/ns#"
   xmlns:rdf="http://www.w3.org/1999/02/22-rdf-syntax-ns#"
   xmlns:svg="http://www.w3.org/2000/svg"
   xmlns="http://www.w3.org/2000/svg"
   xmlns:sodipodi="http://sodipodi.sourceforge.net/DTD/sodipodi-0.dtd"
   xmlns:inkscape="http://www.inkscape.org/namespaces/inkscape"
   version="1.1"
   width="18"
   height="18"
   viewBox="0 0 18 18"
   id="svg871"
   sodipodi:docname="repeat.svg"
   inkscape:version="0.92.5 (2060ec1f9f, 2020-04-08)">
  <metadata
     id="metadata877">
    <rdf:RDF>
      <cc:Work
         rdf:about="">
        <dc:format>image/svg+xml</dc:format>
        <dc:type
           rdf:resource="http://purl.org/dc/dcmitype/StillImage" />
        <dc:title></dc:title>
      </cc:Work>
    </rdf:RDF>
  </metadata>
  <defs
     id="defs875" />
  <sodipodi:namedview
     pagecolor="#ffffff"
     bordercolor="#666666"
     borderopacity="1"
     objecttolerance="10"
     gridtolerance="10"
     guidetolerance="10"
     inkscape:pageopacity="0"
     inkscape:pageshadow="2"
     inkscape:window-width="1848"
     inkscape:window-height="1016"
     id="namedview873"
     showgrid="false"
     inkscape:zoom="45.254834"
     inkscape:cx="4.3109006"
     inkscape:cy="9.0810114"
     inkscape:window-x="72"
     inkscape:window-y="27"
     inkscape:window-maximized="1"
     inkscape:current-layer="svg871" />
  <g
     id="icomoon-ignore"
     transform="translate(0,-1006)" />
  <g
     id="icomoon-ignore-5"
     transform="matrix(0.01791485,0,0,0.01791485,-0.308979,3.5317971)" />
  <g
     id="g2479">
    <path
       id="path2425"
       d="M 9 0 A 9 9 0 0 0 0 9 A 9 9 0 0 0 9 18 A 9 9 0 0 0 18 9 A 9 9 0 0 0 17.998047 8.9492188 L 15.998047 8.9492188 A 7 7 0 0 1 16 9 A 7 7 0 0 1 9 16 A 7 7 0 0 1 2 9 A 7 7 0 0 1 9 2 A 7 7 0 0 1 13.726562 3.8496094 L 15.345703 2.625 A 9 9 0 0 0 9 0 z "
       style="fill:#000000;fill-opacity:1;stroke:none;stroke-width:0;stroke-linejoin:round;stroke-miterlimit:0;stroke-dasharray:none" />
    <path
       inkscape:transform-center-x="-0.048365125"
       transform="matrix(-0.80360744,0.79916187,-0.46682451,-0.46942135,22.142361,12.07514)"
       inkscape:transform-center-y="0.01558656"
       d="m -0.65540612,11.590557 3.74999962,6.49519 -7.4999996,0 z"
       inkscape:randomized="0"
       inkscape:rounded="0"
       inkscape:flatsided="true"
       sodipodi:arg2="-0.52359878"
       sodipodi:arg1="-1.5707963"
       sodipodi:r2="2.1650634"
       sodipodi:r1="4.3301268"
       sodipodi:cy="15.920684"
       sodipodi:cx="-0.65540624"
       sodipodi:sides="3"
       id="path2473"
       style="fill:#000000;fill-opacity:1;stroke:none;stroke-width:0.05539311;stroke-linejoin:round;stroke-miterlimit:4;stroke-dasharray:none"
       sodipodi:type="star" />
  </g>
</svg>
