<?xml version="1.0" encoding="UTF-8" standalone="no"?>
<svg
   version="1.1"
   width="18"
   height="18"
   viewBox="0 0 18 18"
   class="a_0_circle"
   id="svg453"
   sodipodi:docname="WeightForScaleEmpty.svg"
   inkscape:version="1.2.2 (b0a8486541, 2022-12-01, custom)"
   xmlns:inkscape="http://www.inkscape.org/namespaces/inkscape"
   xmlns:sodipodi="http://sodipodi.sourceforge.net/DTD/sodipodi-0.dtd"
   xmlns="http://www.w3.org/2000/svg"
   xmlns:svg="http://www.w3.org/2000/svg">
  <defs
     id="defs457">
    <filter
       id="mask-powermask-path-effect501_inverse"
       inkscape:label="filtermask-powermask-path-effect501"
       style="color-interpolation-filters:sRGB"
       height="100"
       width="100"
       x="-50"
       y="-50">
      <feColorMatrix
         id="mask-powermask-path-effect501_primitive1"
         values="1"
         type="saturate"
         result="fbSourceGraphic" />
      <feColorMatrix
         id="mask-powermask-path-effect501_primitive2"
         values="-1 0 0 0 1 0 -1 0 0 1 0 0 -1 0 1 0 0 0 1 0 "
         in="fbSourceGraphic" />
    </filter>
    <filter
       id="mask-powermask-path-effect513_inverse"
       inkscape:label="filtermask-powermask-path-effect513"
       style="color-interpolation-filters:sRGB"
       height="100"
       width="100"
       x="-50"
       y="-50">
      <feColorMatrix
         id="mask-powermask-path-effect513_primitive1"
         values="1"
         type="saturate"
         result="fbSourceGraphic" />
      <feColorMatrix
         id="mask-powermask-path-effect513_primitive2"
         values="-1 0 0 0 1 0 -1 0 0 1 0 0 -1 0 1 0 0 0 1 0 "
         in="fbSourceGraphic" />
    </filter>
  </defs>
  <sodipodi:namedview
     id="namedview455"
     pagecolor="#ffffff"
     bordercolor="#000000"
     borderopacity="0.25"
     inkscape:showpageshadow="2"
     inkscape:pageopacity="0.0"
     inkscape:pagecheckerboard="0"
     inkscape:deskcolor="#d1d1d1"
     showgrid="false"
     inkscape:zoom="13.111111"
     inkscape:cx="7.8177967"
     inkscape:cy="7.3983051"
     inkscape:window-width="1920"
     inkscape:window-height="1043"
     inkscape:window-x="1920"
     inkscape:window-y="0"
     inkscape:window-maximized="1"
     inkscape:current-layer="svg453" />
  <path
     d="m 6.7282521,0.73462495 a 3.4076224,1.1358742 0 0 0 0,1.13586705 0.90870129,1.1358766 0 0 1 0,2.2717531 3.4076224,1.1358742 0 0 0 -3.407623,1.1358766 V 16.636857 a 5.679371,1.1358742 0 1 0 11.3587419,0 V 5.2781217 a 3.4076224,1.1358742 0 0 0 -3.407623,-1.1358766 0.90870129,1.1358766 0 0 1 0,-2.2717531 3.4076224,1.1358742 0 0 0 0,-1.13586705 2.726098,1.1358742 0 0 0 -4.5434959,0"
     id="path18"
     style="fill:none;stroke:#000000;stroke-width:0.453258;stroke-dasharray:none;stroke-opacity:1" />
</svg>
