<?xml version="1.0" encoding="UTF-8" standalone="no"?>
<svg
   version="1.1"
   width="18"
   height="18"
   viewBox="0 0 18 18"
   class="a_0_circle"
   id="svg453"
   sodipodi:docname="WeightForScale.svg"
   inkscape:version="1.2.2 (b0a8486541, 2022-12-01, custom)"
   xmlns:inkscape="http://www.inkscape.org/namespaces/inkscape"
   xmlns:sodipodi="http://sodipodi.sourceforge.net/DTD/sodipodi-0.dtd"
   xmlns="http://www.w3.org/2000/svg"
   xmlns:svg="http://www.w3.org/2000/svg">
  <defs
     id="defs457" />
  <sodipodi:namedview
     id="namedview455"
     pagecolor="#ffffff"
     bordercolor="#000000"
     borderopacity="0.25"
     inkscape:showpageshadow="2"
     inkscape:pageopacity="0.0"
     inkscape:pagecheckerboard="0"
     inkscape:deskcolor="#d1d1d1"
     showgrid="false"
     inkscape:zoom="13.111111"
     inkscape:cx="0.80084746"
     inkscape:cy="9"
     inkscape:window-width="1920"
     inkscape:window-height="1043"
     inkscape:window-x="1920"
     inkscape:window-y="0"
     inkscape:window-maximized="1"
     inkscape:current-layer="svg453" />
  <path
     d="m 6.6694005,0.52115619 a 3.4958999,1.1653 0 0 0 0,1.16529261 0.93224201,1.1653025 0 0 1 0,2.3306049 A 3.4958999,1.1653 0 0 0 3.1735,5.1823562 V 16.83535 a 5.8265,1.1653 0 1 0 11.653,0 V 5.1823562 a 3.4958999,1.1653 0 0 0 -3.4959,-1.1653025 0.93224201,1.1653025 0 0 1 0,-2.3306049 3.4958999,1.1653 0 0 0 0,-1.16529261 2.79672,1.1653 0 0 0 -4.6611995,0"
     id="path18"
     style="stroke-width:1.16531" />
</svg>
