<?xml version="1.0" encoding="UTF-8" standalone="no"?>
<svg
   version="1.1"
   width="18"
   height="18"
   viewBox="0 0 18 18"
   class="a_0_circle"
   id="svg453"
   sodipodi:docname="WeightForScale.svg"
   inkscape:version="1.2.2 (b0a8486541, 2022-12-01, custom)"
   xmlns:inkscape="http://www.inkscape.org/namespaces/inkscape"
   xmlns:sodipodi="http://sodipodi.sourceforge.net/DTD/sodipodi-0.dtd"
   xmlns="http://www.w3.org/2000/svg"
   xmlns:svg="http://www.w3.org/2000/svg">
  <defs
     id="defs457">
    <inkscape:path-effect
       effect="powermask"
       id="path-effect917"
       is_visible="true"
       lpeversion="1"
       uri="#mask-powermask-path-effect917"
       invert="false"
       hide_mask="false"
       background="true"
       background_color="#ffffffff" />
    <mask
       maskUnits="userSpaceOnUse"
       id="mask-powermask-path-effect917">
      <path
         id="mask-powermask-path-effect917_box"
         style="fill:#ffffff;fill-opacity:1"
         d="m 2.1735,-0.99999984 h 13.653 V 19.00065 H 2.1735 Z" />
      <g
         aria-label="KG"
         id="g915"
         style="font-stretch:condensed;font-size:6px;font-family:'Arial Narrow';-inkscape-font-specification:'Arial Narrow Condensed';opacity:0.98;fill:#ff0000;fill-opacity:0.980392;stroke-width:0.065;paint-order:markers fill stroke"
         transform="matrix(1.0900646,0,0,1.0900284,-0.42917657,17.998419)">
        <path
           d="m 5.4259872,-5.2208867 v -4.2949219 h 0.4658204 v 2.1298828 L 7.640831,-9.5158086 h 0.6328125 l -1.4794922,1.7402344 1.5439453,2.5546875 H 7.7228622 L 6.468956,-7.3947148 5.8918076,-6.709168 v 1.4882813 z"
           id="path911"
           style="fill:#ff0000" />
        <path
           d="m 10.383018,-6.905457 v -0.5039063 l 1.491211,-0.00293 v 1.59375 q -0.342773,0.3339844 -0.708984,0.5039063 -0.366211,0.1669922 -0.75293,0.1669922 -0.5156246,0 -0.9199215,-0.2578125 -0.4042969,-0.2578125 -0.6416016,-0.7529297 -0.234375,-0.4951172 -0.234375,-1.1894531 0,-0.703125 0.2373047,-1.2246094 0.2373047,-0.5214844 0.6210938,-0.7675781 0.383789,-0.2490235 0.9082026,-0.2490235 0.386719,0 0.676758,0.1435547 0.290039,0.1435547 0.477539,0.4072266 0.1875,0.2636719 0.28125,0.7236328 l -0.418945,0.140625 q -0.08496,-0.3632813 -0.213867,-0.5419922 -0.128906,-0.1816406 -0.339844,-0.2841797 -0.210937,-0.102539 -0.474609,-0.102539 -0.3837893,0 -0.6621096,0.1875 -0.2753907,0.1845703 -0.4453125,0.5771484 -0.1669922,0.3925781 -0.1669922,0.9580078 0,0.8613281 0.3603515,1.2919922 0.3603516,0.4277344 0.9374998,0.4277344 0.275391,0 0.5625,-0.131836 0.290039,-0.1318359 0.459961,-0.3134765 V -6.905457 Z"
           id="path913"
           style="fill:#ff0000" />
      </g>
    </mask>
    <filter
       id="mask-powermask-path-effect917_inverse"
       inkscape:label="filtermask-powermask-path-effect917"
       style="color-interpolation-filters:sRGB"
       height="100"
       width="100"
       x="-50"
       y="-50">
      <feColorMatrix
         id="mask-powermask-path-effect917_primitive1"
         values="1"
         type="saturate"
         result="fbSourceGraphic" />
      <feColorMatrix
         id="mask-powermask-path-effect917_primitive2"
         values="-1 0 0 0 1 0 -1 0 0 1 0 0 -1 0 1 0 0 0 1 0 "
         in="fbSourceGraphic" />
    </filter>
  </defs>
  <sodipodi:namedview
     id="namedview455"
     pagecolor="#ffffff"
     bordercolor="#000000"
     borderopacity="0.25"
     inkscape:showpageshadow="2"
     inkscape:pageopacity="0.0"
     inkscape:pagecheckerboard="0"
     inkscape:deskcolor="#d1d1d1"
     showgrid="false"
     inkscape:zoom="13.111111"
     inkscape:cx="-7.4364407"
     inkscape:cy="9.0000001"
     inkscape:window-width="1920"
     inkscape:window-height="1043"
     inkscape:window-x="1920"
     inkscape:window-y="0"
     inkscape:window-maximized="1"
     inkscape:current-layer="svg453" />
  <path
     d="m 6.6694005,0.52115619 a 3.4958999,1.1653 0 0 0 0,1.16529261 0.93224201,1.1653025 0 0 1 0,2.3306049 A 3.4958999,1.1653 0 0 0 3.1735,5.1823562 V 16.83535 a 5.8265,1.1653 0 1 0 11.653,0 V 5.1823562 a 3.4958999,1.1653 0 0 0 -3.4959,-1.1653025 0.93224201,1.1653025 0 0 1 0,-2.3306049 3.4958999,1.1653 0 0 0 0,-1.16529261 2.79672,1.1653 0 0 0 -4.6611995,0"
     id="path18"
     style="stroke-width:1.16531"
     mask="url(#mask-powermask-path-effect917)"
     inkscape:path-effect="#path-effect917"
     inkscape:original-d="m 6.6694005,0.52115619 a 3.4958999,1.1653 0 0 0 0,1.16529261 0.93224201,1.1653025 0 0 1 0,2.3306049 A 3.4958999,1.1653 0 0 0 3.1735,5.1823562 V 16.83535 a 5.8265,1.1653 0 1 0 11.653,0 V 5.1823562 a 3.4958999,1.1653 0 0 0 -3.4959,-1.1653025 0.93224201,1.1653025 0 0 1 0,-2.3306049 3.4958999,1.1653 0 0 0 0,-1.16529261 2.79672,1.1653 0 0 0 -4.6611995,0" />
</svg>
