<?xml version="1.0" encoding="UTF-8" standalone="no"?>
<svg
   version="1.1"
   width="18"
   height="18"
   viewBox="0 0 18 18"
   id="svg5318"
   sodipodi:docname="_envelope.svg"
   xml:space="preserve"
   inkscape:version="1.2.1 (0f2f062aeb, 2022-09-21, custom)"
   xmlns:inkscape="http://www.inkscape.org/namespaces/inkscape"
   xmlns:sodipodi="http://sodipodi.sourceforge.net/DTD/sodipodi-0.dtd"
   xmlns="http://www.w3.org/2000/svg"
   xmlns:svg="http://www.w3.org/2000/svg"><g
     id="g13372"><rect
       style="opacity:0.98;fill:none;stroke:#000000;stroke-width:1.2071;stroke-dasharray:none;stroke-opacity:1;paint-order:markers fill stroke"
       id="rect13360"
       width="16.792902"
       height="12.417901"
       x="-21.89645"
       y="32.79105" /><path
       style="opacity:0.98;fill:none;fill-opacity:1;stroke:#000000;stroke-width:1.2;stroke-dasharray:none;stroke-opacity:1;paint-order:markers fill stroke"
       d="m -22,33 8.5,7.5 L -5,33 v 0"
       id="path13362"
       sodipodi:nodetypes="cccc" /><path
       style="opacity:0.98;fill:none;fill-opacity:1;stroke:#000000;stroke-width:1.2;stroke-dasharray:none;stroke-opacity:1;paint-order:markers fill stroke"
       d="m -22,45 7.5,-5.5"
       id="path13364" /><path
       style="opacity:0.98;fill:none;fill-opacity:1;stroke:#000000;stroke-width:1.2;stroke-dasharray:none;stroke-opacity:1;paint-order:markers fill stroke"
       d="m -5,45 -7.5,-5.5"
       id="path13366" /></g><defs
     id="defs5322" /><sodipodi:namedview
     id="namedview5320"
     pagecolor="#ffffff"
     bordercolor="#000000"
     borderopacity="0.25"
     inkscape:showpageshadow="2"
     inkscape:pageopacity="0.0"
     inkscape:pagecheckerboard="0"
     inkscape:deskcolor="#d1d1d1"
     showgrid="true"
     inkscape:zoom="6.5555556"
     inkscape:cx="3.3559322"
     inkscape:cy="11.211864"
     inkscape:window-width="1848"
     inkscape:window-height="1136"
     inkscape:window-x="72"
     inkscape:window-y="27"
     inkscape:window-maximized="1"
     inkscape:current-layer="svg5318"><inkscape:grid
       type="xygrid"
       id="grid10059"
       empspacing="9"
       spacingy="0.5"
       originy="9"
       dotted="false"
       snapvisiblegridlinesonly="true"
       visible="true"
       enabled="true"
       originx="9"
       spacingx="0.5" /><sodipodi:guide
       position="0,18"
       orientation="0,18"
       id="guide12239"
       inkscape:locked="false" /><sodipodi:guide
       position="18,18"
       orientation="18,0"
       id="guide12241"
       inkscape:locked="false" /><sodipodi:guide
       position="18,0"
       orientation="0,-18"
       id="guide12243"
       inkscape:locked="false" /><sodipodi:guide
       position="0,0"
       orientation="-18,0"
       id="guide12245"
       inkscape:locked="false" /></sodipodi:namedview><g
     id="use5271"
     style="fill:#000000;stroke:#000000"
     transform="matrix(0.32727273,0,0,0.32727273,-30.343233,-20.260221)"><title
       id="title7080">Post Office</title><g
       style="fill:none;stroke-width:4"
       id="g7090"><path
         d="m 10.5,55.1 h 51 V 17.5 h -51 z"
         id="path7082" /><path
         d="m 11,17.75 22,22.6 c 1.6,1.6 4.4,1.6 6,0.0125 L 61,17.75"
         id="path7084" /><path
         d="M 12,54 28.9,37"
         id="path7086" /><path
         d="M 60,54 43.1,37"
         id="path7088" /></g></g><g
     style="fill:currentColor"
     id="g7129"
     transform="translate(-8.5685149,-16.736265)"><path
       d="M 0.05,3.555 A 2,2 0 0 1 2,2 h 12 a 2,2 0 0 1 1.95,1.555 L 8,8.414 Z M 0,4.697 v 7.104 L 5.803,8.243 Z M 6.761,8.83 0.191,12.856 A 2,2 0 0 0 2,14 H 8.256 A 4.493,4.493 0 0 1 8,12.5 4.49,4.49 0 0 1 9.606,9.054 L 9.239,8.829 8,9.586 6.761,8.829 Z M 16,4.697 V 9.671 A 4.491,4.491 0 0 0 12.5,8 4.49,4.49 0 0 0 10.535,8.45 L 10.197,8.243 Z"
       id="path7117" /><path
       d="m 16,12.5 a 3.5,3.5 0 1 1 -7,0 3.5,3.5 0 0 1 7,0 z m -4.854,-1.354 a 0.5,0.5 0 0 0 0,0.708 l 0.647,0.646 -0.647,0.646 a 0.5006316,0.5006316 0 0 0 0.708,0.708 l 0.646,-0.647 0.646,0.647 a 0.5006316,0.5006316 0 0 0 0.708,-0.708 L 13.207,12.5 13.854,11.854 A 0.5006316,0.5006316 0 0 0 13.146,11.146 L 12.5,11.793 11.854,11.146 a 0.5,0.5 0 0 0 -0.708,0 z"
       id="path7119" /></g><g
     style="fill:currentColor"
     id="g7143"
     transform="translate(41.184879,7.7515946)"><path
       d="M 2,2 A 2,2 0 0 0 0,4 v 8.01 A 2,2 0 0 0 2,14 h 5.5 a 0.5,0.5 0 0 0 0,-1 H 2 A 1,1 0 0 1 1.034,12.259 L 6.674,8.788 8,9.583 15,5.383 V 8.5 a 0.5,0.5 0 0 0 1,0 V 4 A 2,2 0 0 0 14,2 Z M 5.708,8.208 1,11.105 V 5.383 Z M 1,4.217 V 4 A 1,1 0 0 1 2,3 h 12 a 1,1 0 0 1 1,1 v 0.217 l -7,4.2 z"
       id="path7131" /><path
       d="m 16,12.5 a 3.5,3.5 0 1 1 -7,0 3.5,3.5 0 0 1 7,0 z m -4.854,-1.354 a 0.5,0.5 0 0 0 0,0.708 l 0.647,0.646 -0.647,0.646 a 0.5006316,0.5006316 0 0 0 0.708,0.708 l 0.646,-0.647 0.646,0.647 a 0.5006316,0.5006316 0 0 0 0.708,-0.708 L 13.207,12.5 13.854,11.854 A 0.5006316,0.5006316 0 0 0 13.146,11.146 L 12.5,11.793 11.854,11.146 a 0.5,0.5 0 0 0 -0.708,0 z"
       id="path7133" /></g><g
     style="fill:currentColor"
     id="g7157"
     transform="translate(-47.147051,-4.0460626)"><path
       d="M 0.05,3.555 A 2,2 0 0 1 2,2 h 12 a 2,2 0 0 1 1.95,1.555 L 8,8.414 Z M 0,4.697 v 7.104 L 5.803,8.243 Z M 6.761,8.83 0.191,12.856 A 2,2 0 0 0 2,14 H 8.256 A 4.493,4.493 0 0 1 8,12.5 4.49,4.49 0 0 1 9.606,9.054 L 9.239,8.829 8,9.586 6.761,8.829 Z M 16,4.697 V 9.671 A 4.491,4.491 0 0 0 12.5,8 4.49,4.49 0 0 0 10.535,8.45 L 10.197,8.243 Z"
       id="path7145" /><path
       d="m 14.975,10.025 a 3.5001786,3.5001786 0 1 0 -4.95,4.95 3.5001786,3.5001786 0 0 0 4.95,-4.95 z m -4.243,0.707 a 2.501,2.501 0 0 1 3.147,-0.318 l -3.465,3.465 a 2.501,2.501 0 0 1 0.318,-3.147 z m 0.39,3.854 3.464,-3.465 a 2.501,2.501 0 0 1 -3.465,3.465 z"
       id="path7147" /></g><g
     style="fill:currentColor"
     id="g7171"
     transform="translate(-45.460315,-18.825791)"><path
       d="M 2,2 A 2,2 0 0 0 0,4 v 8.01 A 2,2 0 0 0 2,14 h 5.5 a 0.5,0.5 0 0 0 0,-1 H 2 A 1,1 0 0 1 1.034,12.259 L 6.674,8.788 8,9.583 15,5.383 V 8.5 a 0.5,0.5 0 0 0 1,0 V 4 A 2,2 0 0 0 14,2 Z M 5.708,8.208 1,11.105 V 5.383 Z M 1,4.217 V 4 A 1,1 0 0 1 2,3 h 12 a 1,1 0 0 1 1,1 v 0.217 l -7,4.2 z"
       id="path7159" /><path
       d="m 14.975,10.025 a 3.5001786,3.5001786 0 1 0 -4.95,4.95 3.5001786,3.5001786 0 0 0 4.95,-4.95 z m -4.243,0.707 a 2.501,2.501 0 0 1 3.147,-0.318 l -3.465,3.465 a 2.501,2.501 0 0 1 0.318,-3.147 z m 0.39,3.854 3.464,-3.465 a 2.501,2.501 0 0 1 -3.465,3.465 z"
       id="path7161" /></g><g
     style="fill:currentColor"
     id="g7185"
     transform="translate(-8.4195288,-31.441379)"><path
       d="M 0.05,3.555 A 2,2 0 0 1 2,2 h 12 a 2,2 0 0 1 1.95,1.555 L 8,8.414 Z M 0,4.697 v 7.104 L 5.803,8.243 Z M 6.761,8.83 0.191,12.856 A 2,2 0 0 0 2,14 H 8.256 A 4.493,4.493 0 0 1 8,12.5 4.49,4.49 0 0 1 9.606,9.054 L 9.239,8.829 8,9.586 6.761,8.829 Z M 16,4.697 V 9.671 A 4.491,4.491 0 0 0 12.5,8 4.49,4.49 0 0 0 10.535,8.45 L 10.197,8.243 Z"
       id="path7173" /><path
       d="m 16,12.5 a 3.5,3.5 0 1 1 -7,0 3.5,3.5 0 0 1 7,0 z m -3.5,-2 A 0.5,0.5 0 0 0 12,11 v 1 h -1 a 0.5,0.5 0 0 0 0,1 h 1 v 1 a 0.5,0.5 0 0 0 1,0 v -1 h 1 a 0.5,0.5 0 0 0 0,-1 h -1 v -1 a 0.5,0.5 0 0 0 -0.5,-0.5 z"
       id="path7175" /></g><g
     style="fill:currentColor"
     id="g7199"
     transform="translate(-42.699668,-32.860084)"><path
       d="M 2,2 A 2,2 0 0 0 0,4 v 8.01 A 2,2 0 0 0 2,14 h 5.5 a 0.5,0.5 0 0 0 0,-1 H 2 A 1,1 0 0 1 1.034,12.259 L 6.674,8.788 8,9.583 15,5.383 V 8.5 a 0.5,0.5 0 0 0 1,0 V 4 A 2,2 0 0 0 14,2 Z M 5.708,8.208 1,11.105 V 5.383 Z M 1,4.217 V 4 A 1,1 0 0 1 2,3 h 12 a 1,1 0 0 1 1,1 v 0.217 l -7,4.2 z"
       id="path7187" /><path
       d="m 16,12.5 a 3.5,3.5 0 1 1 -7,0 3.5,3.5 0 0 1 7,0 z m -3.5,-2 A 0.5,0.5 0 0 0 12,11 v 1 h -1 a 0.5,0.5 0 0 0 0,1 h 1 v 1 a 0.5,0.5 0 0 0 1,0 v -1 h 1 a 0.5,0.5 0 0 0 0,-1 h -1 v -1 a 0.5,0.5 0 0 0 -0.5,-0.5 z"
       id="path7189" /></g><g
     style="fill:currentColor"
     id="g7210"
     transform="translate(-25.123588,-31.874313)"><path
       fill-rule="evenodd"
       d="M 3,7.5 6.5,9.5 8,8.75 9.5,9.5 13,7.5 v -6 A 1.5,1.5 0 0 0 11.5,0 h -7 A 1.5,1.5 0 0 0 3,1.5 Z M 2,3.133 1.059,3.635 A 2,2 0 0 0 0,5.4 V 5.713 L 2,6.886 Z M 14,6.886 16,5.713 V 5.4 A 2,2 0 0 0 14.941,3.635 L 14,3.133 Z M 10.307,10.21 16,6.873 v 6.5 z M 15.941,14.484 8,10.072 0.059,14.484 A 2,2 0 0 0 2,16 h 12 a 2,2 0 0 0 1.941,-1.516 z M 5.693,10.21 0,13.372 v -6.5 z M 8,1.982 C 9.664,0.309 13.825,3.236 8,7 2.175,3.236 6.336,0.31 8,1.982 Z"
       id="path7201" /></g><g
     style="fill:currentColor"
     id="g7221"
     transform="translate(8.8324094,-31.083158)"><path
       fill-rule="evenodd"
       d="M 2,2 A 2,2 0 0 1 4,0 h 8 a 2,2 0 0 1 2,2 v 1.133 l 0.941,0.502 A 2,2 0 0 1 16,5.4 V 14 a 2,2 0 0 1 -2,2 H 2 A 2,2 0 0 1 0,14 V 5.4 A 2,2 0 0 1 1.059,3.635 L 2,3.133 Z M 2,4.267 1.53,4.517 A 1,1 0 0 0 1,5.4 v 0.817 l 1,0.6 z M 3,7.417 6.75,9.667 8,8.917 9.25,9.667 13,7.417 V 2 A 1,1 0 0 0 12,1 H 4 A 1,1 0 0 0 3,2 Z m 11,-0.6 1,-0.6 V 5.4 A 1,1 0 0 0 14.47,4.518 L 14,4.267 Z M 8,2.982 C 9.664,1.309 13.825,4.236 8,8 2.175,4.236 6.336,1.31 8,2.982 Z M 15,7.383 10.222,10.25 15,13.117 Z M 14.965,14.263 8,10.082 1.035,14.262 A 1,1 0 0 0 2,15 h 12 a 1,1 0 0 0 0.965,-0.738 z M 1,13.116 5.778,10.249 1,7.383 v 5.734 z"
       id="path7212" /></g><g
     style="fill:currentColor"
     id="g7232"
     transform="translate(26.282167,-31.999471)"><path
       fill-rule="evenodd"
       d="M 6.5,9.5 3,7.5 v -6 A 1.5,1.5 0 0 1 4.5,0 h 7 A 1.5,1.5 0 0 1 13,1.5 v 6 L 9.5,9.5 8,8.75 Z M 1.059,3.635 2,3.133 V 6.886 L 0,5.713 V 5.4 A 2,2 0 0 1 1.059,3.635 Z M 16,5.713 14,6.886 V 3.133 l 0.941,0.502 A 2,2 0 0 1 16,5.4 Z m 0,1.16 -5.693,3.337 5.693,3.162 v -6.5 z m -8,3.199 7.941,4.412 A 2,2 0 0 1 14,16 H 2 A 2,2 0 0 1 0.059,14.484 Z M 0,13.372 5.693,10.21 0,6.873 v 6.5 z"
       id="path7223" /></g><g
     style="fill:currentColor"
     id="g7243"
     transform="translate(47.977828,-20.637194)"><path
       d="M 4,0 A 2,2 0 0 0 2,2 V 3.133 L 1.059,3.635 A 2,2 0 0 0 0,5.4 V 14 a 2,2 0 0 0 2,2 h 12 a 2,2 0 0 0 2,-2 V 5.4 A 2,2 0 0 0 14.941,3.635 L 14,3.133 V 2 A 2,2 0 0 0 12,0 Z m 10,4.267 0.47,0.25 A 1,1 0 0 1 15,5.4 v 0.817 l -1,0.6 z M 13,7.417 9.25,9.667 8,8.917 6.75,9.667 3,7.417 V 2 A 1,1 0 0 1 4,1 h 8 a 1,1 0 0 1 1,1 z M 2,6.817 1,6.217 V 5.4 A 1,1 0 0 1 1.53,4.518 L 2,4.267 Z m 13,0.566 v 5.734 L 10.222,10.25 Z m -0.035,6.88 A 1,1 0 0 1 14,15 H 2 A 1,1 0 0 1 1.035,14.262 L 8,10.083 Z M 1,13.116 V 7.383 L 5.778,10.25 1,13.117 Z"
       id="path7234" /></g><g
     style="fill:currentColor"
     id="g7257"
     transform="translate(65.230758,-12.797631)"><path
       d="m 8.941,0.435 a 2,2 0 0 0 -1.882,0 l -6,3.2 A 2,2 0 0 0 0,5.4 V 5.713 L 4.222,8.188 C 4.246,8.13 4.272,8.074 4.302,8.018 4.967,6.718 6.664,6.101 8,6.768 c 1.336,-0.667 3.033,-0.05 3.699,1.25 a 3.3,3.3 0 0 1 0.08,0.17 L 16,5.713 V 5.4 A 2,2 0 0 0 14.941,3.635 Z M 0,6.873 4,9.217 c -0.012,0.542 0.124,1.117 0.416,1.694 L 4.42,10.917 0,13.372 v -6.5 z m 0.059,7.611 4.9,-2.723 c 0.563,0.73 1.383,1.467 2.49,2.198 L 8,14.324 8.551,13.959 c 1.107,-0.73 1.927,-1.467 2.49,-2.198 l 4.9,2.723 A 2,2 0 0 1 14,16 H 2 A 2,2 0 0 1 0.059,14.484 Z M 16,13.372 11.58,10.917 11.584,10.911 c 0.292,-0.577 0.428,-1.152 0.415,-1.694 L 16,6.873 v 6.5 z"
       id="path7245" /><path
       d="M 8,7.993 C 9.664,6.282 13.825,9.276 8,13.125 2.175,9.275 6.336,6.282 8,7.993 Z"
       id="path7247" /></g><g
     style="fill:currentColor"
     id="g7268"
     transform="translate(59.467628,4.6438402)"><path
       fill-rule="evenodd"
       d="m 8.47,1.318 a 1,1 0 0 0 -0.94,0 l -6,3.2 A 1,1 0 0 0 1,5.4 v 0.817 l 3.235,1.94 A 2.76,2.76 0 0 0 4.002,9.184 L 1,7.384 v 5.733 L 4.479,11.03 c 0.15,0.275 0.335,0.553 0.558,0.83 L 1.035,14.262 A 1,1 0 0 0 2,15 h 12 a 1,1 0 0 0 0.965,-0.738 l -4.002,-2.401 c 0.223,-0.278 0.408,-0.556 0.558,-0.831 L 15,13.117 V 7.383 L 11.998,9.184 A 2.76,2.76 0 0 0 11.765,8.158 L 15,6.217 V 5.4 A 1,1 0 0 0 14.47,4.518 Z M 7.06,0.435 a 2,2 0 0 1 1.882,0 l 6,3.2 A 2,2 0 0 1 16,5.4 V 14 a 2,2 0 0 1 -2,2 H 2 A 2,2 0 0 1 0,14 V 5.4 A 2,2 0 0 1 1.059,3.635 l 6,-3.2 z M 8,7.993 C 9.664,6.282 13.825,9.276 8,13.125 2.175,9.275 6.336,6.282 8,7.993 Z"
       id="path7259" /></g><g
     style="fill:currentColor"
     id="g7279"
     transform="translate(-50.148063,23.728931)"><path
       d="m 8.941,0.435 a 2,2 0 0 0 -1.882,0 l -6,3.2 A 2,2 0 0 0 0,5.4 V 5.714 L 6.709,9.646 8,8.928 9.291,9.646 16,5.714 V 5.4 A 2,2 0 0 0 14.941,3.635 Z M 16,6.873 10.307,10.21 16,13.372 v -6.5 z M 15.941,14.484 8,10.072 0.059,14.484 A 2,2 0 0 0 2,16 h 12 a 2,2 0 0 0 1.941,-1.516 z M 0,13.373 5.693,10.21 0,6.873 Z"
       id="path7270" /></g><g
     style="fill:currentColor"
     id="g7290"
     transform="translate(51.878738,22.851542)"><path
       d="m 8.47,1.318 a 1,1 0 0 0 -0.94,0 l -6,3.2 A 1,1 0 0 0 1,5.4 V 6.217 L 6.75,9.667 8,8.917 9.25,9.667 15,6.217 V 5.4 A 1,1 0 0 0 14.47,4.518 Z M 15,7.383 10.222,10.25 15,13.117 Z M 14.965,14.263 8,10.082 1.035,14.262 A 1,1 0 0 0 2,15 h 12 a 1,1 0 0 0 0.965,-0.738 z M 1,13.116 5.778,10.249 1,7.383 v 5.734 z M 7.059,0.435 a 2,2 0 0 1 1.882,0 l 6,3.2 A 2,2 0 0 1 16,5.4 V 14 a 2,2 0 0 1 -2,2 H 2 A 2,2 0 0 1 0,14 V 5.4 A 2,2 0 0 1 1.059,3.635 Z"
       id="path7281" /></g><g
     style="fill:currentColor"
     id="g7304"
     transform="translate(-31.364987,10.6061)"><path
       d="M 0.05,3.555 A 2,2 0 0 1 2,2 h 12 a 2,2 0 0 1 1.95,1.555 l -4.2,2.568 A 2.785,2.785 0 0 0 11.699,6.018 C 11.033,4.718 9.336,4.101 8,4.768 6.664,4.101 4.967,4.718 4.301,6.018 L 4.251,6.123 Z M 11.584,8.91 A 4.694,4.694 0 0 1 11.511,9.049 L 16,11.8 V 4.697 L 11.997,7.144 C 12.024,7.706 11.89,8.307 11.584,8.911 Z M 7.449,11.96 C 6.401,11.267 5.609,10.57 5.051,9.878 L 0.19,12.856 A 2,2 0 0 0 2,14 h 12 a 2,2 0 0 0 1.808,-1.144 L 10.95,9.878 C 10.391,10.57 9.6,11.267 8.552,11.959 L 8,12.324 7.449,11.959 Z M 4.416,8.91 C 4.11,8.307 3.976,7.706 4.003,7.144 L 0,4.697 v 7.104 L 4.49,9.049 A 4.742,4.742 0 0 1 4.416,8.911 Z"
       id="path7292" /><path
       d="M 8,5.993 C 9.664,4.282 13.825,7.276 8,11.125 2.175,7.275 6.336,4.282 8,5.993 Z"
       id="path7294" /></g><g
     style="fill:currentColor"
     id="g7315"
     transform="translate(-48.299037,9.5829473)"><path
       fill-rule="evenodd"
       d="M 0,4 A 2,2 0 0 1 2,2 h 12 a 2,2 0 0 1 2,2 v 8 a 2,2 0 0 1 -2,2 H 2 A 2,2 0 0 1 0,12 Z M 2,3 A 1,1 0 0 0 1,4 v 0.217 l 3.235,1.94 A 2.76,2.76 0 0 0 4.002,7.184 L 1,5.384 v 5.721 L 4.453,8.981 c 0.146,0.277 0.329,0.556 0.55,0.835 l -3.97,2.443 A 1,1 0 0 0 2,13 h 12 a 1,1 0 0 0 0.966,-0.741 L 10.998,9.817 c 0.22,-0.28 0.403,-0.56 0.55,-0.836 L 15,11.105 V 5.383 L 11.998,7.184 A 2.76,2.76 0 0 0 11.765,6.158 L 15,4.217 V 4 A 1,1 0 0 0 14,3 Z M 8,5.993 C 9.664,4.282 13.825,7.276 8,11.125 2.175,7.275 6.336,4.282 8,5.993 Z"
       id="path7306" /></g><g
     style="fill:currentColor"
     id="g7326"
     transform="translate(-29.313644,-2.4933638)"><path
       d="M 0.05,3.555 A 2,2 0 0 1 2,2 h 12 a 2,2 0 0 1 1.95,1.555 L 8,8.414 Z M 0,4.697 v 7.104 L 5.803,8.243 Z M 6.761,8.83 0.191,12.857 A 2,2 0 0 0 2,14 h 12 a 2,2 0 0 0 1.808,-1.144 L 9.238,8.829 8,9.586 6.761,8.829 Z M 10.197,8.244 16,11.801 V 4.697 l -5.803,3.546 z"
       id="path7317" /></g><rect
     style="opacity:0.98;fill:none;stroke:#000000;stroke-width:1.2071;stroke-dasharray:none;stroke-opacity:1;paint-order:markers fill stroke"
     id="rect7380"
     width="16.792902"
     height="12.417901"
     x="27.60355"
     y="50.79105"
     rx="1.99"
     ry="1.99" /><rect
     style="opacity:0.98;fill:none;stroke:#000000;stroke-width:1.2071;stroke-dasharray:none;stroke-opacity:1;paint-order:markers fill stroke"
     id="rect7745"
     width="16.792902"
     height="12.417901"
     x="21.43873"
     y="9.1090126"
     rx="1.9920372"
     ry="1.9919827" /><path
     style="opacity:0.98;fill:#ff0000;fill-opacity:1;stroke:#000000;stroke-width:0;stroke-dasharray:none;stroke-opacity:1;paint-order:markers fill stroke"
     d="m -8.5515809,20.790662 8.67572641,8.012855"
     id="path7988" /><circle
     id="path8720"
     style="fill:#000000;stroke:none"
     cx="-10.25529"
     cy="12.674722"
     r="0" /><circle
     id="path8722"
     style="fill:#000000;stroke:none"
     cx="-7.4144912"
     cy="14.868333"
     r="0" /><path
     style="opacity:0.98;fill:none;fill-opacity:1;stroke:#000000;stroke-width:1.2;stroke-dasharray:none;stroke-opacity:1;paint-order:markers fill stroke"
     d="m 28,51.5 8,7 8,-7"
     id="path13342"
     sodipodi:nodetypes="ccc" /><rect
     style="opacity:0.98;fill:none;stroke:#000000;stroke-width:1.2071;stroke-dasharray:none;stroke-opacity:1;paint-order:markers fill stroke"
     id="rect13348"
     width="16.792902"
     height="12.417901"
     x="23.10355"
     y="-7.20895"
     rx="1.9920372"
     ry="1.9919827" /><path
     style="opacity:0.98;fill:none;fill-opacity:1;stroke:#000000;stroke-width:1.2;stroke-dasharray:none;stroke-opacity:1;paint-order:markers fill stroke"
     d="M 23,-5.5 31.5,0 40,-5.5 v 0"
     id="path13350" /><path
     style="opacity:0.98;fill:none;fill-opacity:1;stroke:#000000;stroke-width:1.2;stroke-dasharray:none;stroke-opacity:1;paint-order:markers fill stroke"
     d="M 40,3.5 33,-1 v 0"
     id="path13352" /><path
     style="opacity:0.98;fill:none;fill-opacity:1;stroke:#000000;stroke-width:1.2;stroke-dasharray:none;stroke-opacity:1;paint-order:markers fill stroke"
     d="M 23,3.5 30,-1"
     id="path13354" /><path
     style="opacity:0.98;fill:none;fill-opacity:1;stroke:#000000;stroke-width:1.2;stroke-dasharray:none;stroke-opacity:1;paint-order:markers fill stroke"
     d="m 28,62.5 7,-5"
     id="path13356"
     sodipodi:nodetypes="cc" /><path
     style="opacity:0.98;fill:none;fill-opacity:1;stroke:#000000;stroke-width:1.2;stroke-dasharray:none;stroke-opacity:1;paint-order:markers fill stroke"
     d="m 44,62.5 -7,-5"
     id="path13358"
     sodipodi:nodetypes="cc" /><rect
     style="opacity:0.98;fill:none;stroke:#000000;stroke-width:1.2071;stroke-dasharray:none;stroke-opacity:1;paint-order:markers fill stroke"
     id="rect13374"
     width="16.792902"
     height="12.417901"
     x="0.60354966"
     y="32.79105" /><path
     style="opacity:0.98;fill:none;fill-opacity:1;stroke:#000000;stroke-width:1.2;stroke-dasharray:none;stroke-opacity:1;paint-order:markers fill stroke"
     d="M 0.5,33 9,40.5 17.5,33 v 0"
     id="path13376"
     sodipodi:nodetypes="cccc" /><path
     style="opacity:0.98;fill:none;fill-opacity:1;stroke:#000000;stroke-width:1.2;stroke-dasharray:none;stroke-opacity:1;paint-order:markers fill stroke"
     d="M 0.5,45 8,39.5"
     id="path13378" /><path
     style="opacity:0.98;fill:none;fill-opacity:1;stroke:#000000;stroke-width:1.2;stroke-dasharray:none;stroke-opacity:1;paint-order:markers fill stroke"
     d="M 17.5,45 10,39.5"
     id="path13380" /><g
     id="g13394"
     transform="translate(-22.5,48)"><rect
       style="opacity:0.98;fill:none;stroke:#000000;stroke-width:1.2071;stroke-dasharray:none;stroke-opacity:1;paint-order:markers fill stroke"
       id="rect13382"
       width="16.792902"
       height="12.417901"
       x="0.60354966"
       y="2.79105"
       rx="1.99"
       ry="1.99" /><path
       style="opacity:0.98;fill:none;fill-opacity:1;stroke:#000000;stroke-width:1.2;stroke-dasharray:none;stroke-opacity:1;paint-order:markers fill stroke"
       d="m 1,3.5 8,7 8,-7"
       id="path13384"
       sodipodi:nodetypes="ccc" /><path
       style="opacity:0.98;fill:none;fill-opacity:1;stroke:#000000;stroke-width:1.2;stroke-dasharray:none;stroke-opacity:1;paint-order:markers fill stroke"
       d="m 1,14.5 7,-5"
       id="path13386"
       sodipodi:nodetypes="cc" /><path
       style="opacity:0.98;fill:none;fill-opacity:1;stroke:#000000;stroke-width:1.2;stroke-dasharray:none;stroke-opacity:1;paint-order:markers fill stroke"
       d="m 17,14.5 -7,-5"
       id="path13388"
       sodipodi:nodetypes="cc" /></g><rect
     style="opacity:0.98;fill:none;stroke:#000000;stroke-width:1.2071;stroke-dasharray:none;stroke-opacity:1;paint-order:markers fill stroke"
     id="rect13396"
     width="16.792902"
     height="12.417901"
     x="-0.047707412"
     y="50.802811"
     rx="1.99"
     ry="1.99" /><path
     style="opacity:0.98;fill:none;fill-opacity:1;stroke:#000000;stroke-width:1.2;stroke-dasharray:none;stroke-opacity:1;paint-order:markers fill stroke"
     d="m 0.34874293,51.51176 7.99999997,7 8.0000001,-7"
     id="path13398"
     sodipodi:nodetypes="ccc" /><path
     style="opacity:0.98;fill:none;fill-opacity:1;stroke:#000000;stroke-width:1.2;stroke-dasharray:none;stroke-opacity:1;paint-order:markers fill stroke"
     d="m 0.34874293,62.51176 6.99999997,-5"
     id="path13400"
     sodipodi:nodetypes="cc" /><path
     style="opacity:0.98;fill:none;fill-opacity:1;stroke:#000000;stroke-width:1.2;stroke-dasharray:none;stroke-opacity:1;paint-order:markers fill stroke"
     d="m 16.348743,62.51176 -7.0000001,-5"
     id="path13402"
     sodipodi:nodetypes="cc" /></svg>
