<svg
    xmlns="http://www.w3.org/2000/svg"
    version="1.1"
    width="18"
    height="18"
    viewBox="0 0 18 18"
>
    <g
        transform="matrix(0.01757813,0,0,0.01757813,-3.96314e-5,1.7578125e-5)"
    >
        <path
            d="m 493.034,717.353 v 0 c -22.097,-7.811 -37.924,-28.881 -37.924,-53.651 0,-31.421 25.469,-56.89 56.89,-56.89 31.421,0 56.89,25.469 56.89,56.89 0,24.769 -15.833,45.843 -37.924,53.651 v 98.392 c 0,9.98 -8.486,18.618 -18.966,18.618 -10.164,0 -18.966,-8.339 -18.966,-18.618 z m -265.48,-300.17 v 0 0 C 164.683,417.358 113.78,467.989 113.78,531.324 v 189.27 c 0,167.568 136.008,303.405 303.372,303.405 h 189.695 c 167.548,0 303.372,-136.179 303.372,-303.405 v -189.27 c 0,-62.93 -50.854,-113.956 -113.774,-114.141 V 284.414 C 796.445,127.332 668.777,-0.001 512,-0.001 c -157.093,0 -284.445,127.307 -284.445,284.415 v 132.769 z m 113.779,0 V 284.476 c 0,-94.496 76.411,-170.699 170.665,-170.699 94.063,0 170.665,76.426 170.665,170.699 V 417.183 H 341.33 Z"
        />
    </g>
</svg>
