<svg
  xmlns="http://www.w3.org/2000/svg"
  viewBox="0 0 18 18"
  height="18"
  width="18"
  version="1.1"
>
  <g>
    <path
       d="m 6.7282521,0.73462495 a 3.4076224,1.1358742 0 0 0 0,1.13586705 0.90870129,1.1358766 0 0 1 0,2.2717531 3.4076224,1.1358742 0 0 0 -3.407623,1.1358766 V 16.636857 a 5.679371,1.1358742 0 1 0 11.3587419,0 V 5.2781217 a 3.4076224,1.1358742 0 0 0 -3.407623,-1.1358766 0.90870129,1.1358766 0 0 1 0,-2.2717531 3.4076224,1.1358742 0 0 0 0,-1.13586705 2.726098,1.1358742 0 0 0 -4.5434959,0"
       id="path18"
       style="fill:none;stroke:currentColor;stroke-width:0.453258;stroke-dasharray:none;stroke-opacity:1"
    />
    <path
       d="m 4.5545,10.573048 q 0,-0.8966269 0.2405584,-1.3583046 0.2429883,-0.4616778 0.7143856,-0.4616778 0.4179398,0 0.6584982,0.374202 0.2915859,0.4519582 0.2915859,1.4457804 0,0.891767 -0.2405584,1.355874 -0.2405584,0.461678 -0.7143855,0.461678 -0.4179398,0 -0.685227,-0.40822 Q 4.5545,11.57416 4.5545,10.573048 Z m 0.3669123,0 q 0,0.867468 0.1652321,1.163914 0.1676619,0.294015 0.4276593,0.294015 0.2454182,0 0.4106502,-0.298875 0.165232,-0.298876 0.165232,-1.159054 0,-0.8698982 -0.1676619,-1.163914 -0.165232,-0.2940158 -0.4300892,-0.2940158 -0.2429883,0 -0.4082203,0.2988755 -0.1628022,0.2988756 -0.1628022,1.1590543 z"
    />
    <path
       d="M 8.0972692,12.329853 V 8.7676449 H 8.4836206 V 10.53417 l 1.45064,-1.7665251 H 10.459115 L 9.2320245,10.210995 10.512573,12.329853 H 10.002297 L 8.9623075,10.52688 8.4836206,11.095473 v 1.23438 z"
    />
    <path
       d="m 12.208631,10.93267 v -0.417939 l 1.23681,-0.0024 v 1.321856 q -0.284296,0.277007 -0.588032,0.41794 -0.303735,0.138503 -0.62448,0.138503 -0.427659,0 -0.762983,-0.21383 -0.335324,-0.213829 -0.532144,-0.624479 -0.194391,-0.410651 -0.194391,-0.986533 0,-0.5831717 0.196821,-1.0156908 0.19682,-0.4325192 0.515135,-0.6366293 0.318315,-0.20654 0.753264,-0.20654 0.320744,0 0.561303,0.1190642 0.240558,0.1190643 0.39607,0.3377537 0.155513,0.2186895 0.233269,0.6001811 L 13.0518,9.8805312 Q 12.981333,9.5792258 12.874418,9.4310029 12.767504,9.2803502 12.592552,9.1953043 q -0.174951,-0.085046 -0.393641,-0.085046 -0.318315,0 -0.549153,0.1555125 -0.228409,0.1530826 -0.369343,0.4786869 -0.138503,0.3256042 -0.138503,0.7945712 0,0.714386 0.298876,1.071579 0.298875,0.354763 0.777562,0.354763 0.228409,0 0.466538,-0.109345 0.240558,-0.109345 0.381491,-0.259998 V 10.93267 Z"
    />
  </g>
</svg>
