<svg version="1.1" xmlns="http://www.w3.org/2000/svg" width="16" height="16" viewBox="0 0 1024 1024">
    <path d="M853.332 170.666v-85.333q0-17.92-12.373-30.293t-30.293-12.373h-597.334q-17.92 0-30.293 12.373t-12.373 30.293v85.333q0 17.067 12.373 29.867t30.293 12.8h597.334q17.92 0 30.293-12.8t12.373-29.867zM1023.999 426.666v-85.333q0-17.92-12.373-30.293t-30.293-12.373h-938.668q-17.92 0-30.293 12.373t-12.373 30.293v85.333q0 17.067 12.373 29.867t30.293 12.8h938.668q17.92 0 30.293-12.8t12.373-29.867zM853.332 682.666v-85.333q0-17.92-12.373-30.293t-30.293-12.373h-597.334q-17.92 0-30.293 12.373t-12.373 30.293v85.333q0 17.067 12.373 29.867t30.293 12.8h597.334q17.92 0 30.293-12.8t12.373-29.867zM1023.999 938.666v-85.333q0-17.92-12.373-30.293t-30.293-12.373h-938.668q-17.92 0-30.293 12.373t-12.373 30.293v85.333q0 17.067 12.373 29.867t30.293 12.8h938.668q17.92 0 30.293-12.8t12.373-29.867z"></path>
</svg>
