<svg version="1.1" xmlns="http://www.w3.org/2000/svg" width="16" height="16" viewBox="0 0 1024 1024">
    <path d="M143.48 0.002h402.255q102.485 0 181.912 75.156t79.426 194.722q0 46.972-9.821 86.685t-23.913 63.2-28.611 40.567-23.913 23.913l-10.249 5.978q6.833 2.562 18.362 7.686t40.994 26.902 51.67 49.534 40.567 78.145 18.362 110.172q0 71.74-50.389 133.658t-121.274 94.799-138.355 32.88h-427.023v-76.010q35.016-5.978 60.21-27.756t25.194-55.94v-706.295q0-23.913-0.854-33.735t-4.697-22.205-13.238-17.935-24.768-11.957-41.848-12.383v-59.783zM399.694 102.487v323.683h118.712q64.907 0 111.025-52.524t46.118-118.286q0-70.031-71.74-111.453t-204.117-41.422zM399.694 853.193h137.502q76.010 0 130.669-41.422t54.659-113.161q0-76.864-53.377-131.95t-133.658-55.086h-135.793v341.618z"></path>
</svg>
