<svg version="1.1" xmlns="http://www.w3.org/2000/svg" width="16" height="16" viewBox="0 0 1024 1024">
    <path d="M981.334 255.999v-128q0-17.92-12.373-30.293t-30.293-12.373h-128v-85.333h-85.333v85.333h-426.667v-85.333h-85.333v85.333h-128q-17.92 0-30.293 12.373t-12.373 30.293v128h938.668zM42.667 341.332v640.001q0 17.067 12.373 29.867t30.293 12.8h853.334q17.92 0 30.293-12.8t12.373-29.867v-640.001h-938.668zM128 511.999h85.333v85.333h-85.333v-85.333zM298.667 511.999h85.333v85.333h-85.333v-85.333zM469.334 511.999h85.333v85.333h-85.333v-85.333zM640 511.999h85.333v85.333h-85.333v-85.333zM810.667 511.999h85.333v85.333h-85.333v-85.333zM128 682.666h85.333v85.333h-85.333v-85.333zM298.667 682.666h85.333v85.333h-85.333v-85.333zM469.334 682.666h85.333v85.333h-85.333v-85.333zM640 682.666h85.333v85.333h-85.333v-85.333zM810.667 682.666h85.333v85.333h-85.333v-85.333zM128 853.332h85.333v85.333h-85.333v-85.333zM298.667 853.332h85.333v85.333h-85.333v-85.333zM469.334 853.332h85.333v85.333h-85.333v-85.333zM640 853.332h85.333v85.333h-85.333v-85.333zM810.667 853.332h85.333v85.333h-85.333v-85.333z"></path>
</svg>
