<svg version="1.1" xmlns="http://www.w3.org/2000/svg" width="16" height="16" viewBox="0 0 1024 1024">
    <path d="M0.001 651.635v-279.272q0-151.738 109.382-262.050t262.982-110.313h279.272q151.738 0 262.050 110.778t110.313 261.585v279.272q0 153.6-109.382 262.982t-262.982 109.382h-279.272q-153.6 0-262.982-109.382t-109.382-262.982zM837.818 744.725v-465.454q0-38.168-27.461-65.629t-65.629-27.461h-465.454q-38.168 0-65.629 27.461t-27.461 65.629v465.454q0 38.168 27.461 65.629t65.629 27.461h465.454q38.168 0 65.629-27.461t27.461-65.629zM744.728 372.363h-465.454l232.727 309.992z"></path>
</svg>
