<svg version="1.1" xmlns="http://www.w3.org/2000/svg" width="16" height="16" viewBox="0 0 1024 1024">
    <path d="M512 0q104.281 0 199.159 40.601t163.259 108.982 108.982 163.259 40.601 199.159-40.601 199.159-108.982 163.259-163.259 108.982-199.159 40.601-199.159-40.601-163.259-108.982-108.982-163.259-40.601-199.159 40.601-199.159 108.982-163.259 163.259-108.982 199.159-40.601zM512 159.84q-145.309 0-248.734 103.425t-103.425 248.734 103.425 248.734 248.734 103.425 248.734-103.425 103.425-248.734-103.425-248.734-248.734-103.425zM597.475 512h128.214l-213.689 256.427-213.689-256.427h128.214v-256.427h170.952v256.427z"></path>
</svg>
