<svg version="1.1" xmlns="http://www.w3.org/2000/svg" width="16" height="16" viewBox="0 0 1024 1024">
    <path d="M395.637 0h232.727q9.309 0 16.291 6.982t6.982 16.291v139.636q0 9.309-6.982 16.291t-16.291 6.982h-232.727q-9.309 0-16.291-6.982t-6.982-16.291v-139.636q0-9.309 6.982-16.291t16.291-6.982zM395.637 279.273h232.727q9.309 0 16.291 6.982t6.982 16.291v139.636q0 9.309-6.982 16.291t-16.291 6.982h-232.727q-9.309 0-16.291-6.982t-6.982-16.291v-139.636q0-9.309 6.982-16.291t16.291-6.982zM768.001 279.273h232.727q9.309 0 16.291 6.982t6.982 16.291v139.636q0 9.309-6.982 16.291t-16.291 6.982h-232.727q-9.309 0-16.291-6.982t-6.982-16.291v-139.636q0-9.309 6.982-16.291t16.291-6.982zM23.272 558.546h232.727q9.309 0 16.291 6.982t6.982 16.291v139.636q0 9.309-6.982 16.291t-16.291 6.982h-232.727q-9.309 0-16.291-6.982t-6.982-16.291v-139.636q0-9.309 6.982-16.291t16.291-6.982zM395.637 558.546h232.727q9.309 0 16.291 6.982t6.982 16.291v139.636q0 9.309-6.982 16.291t-16.291 6.982h-232.727q-9.309 0-16.291-6.982t-6.982-16.291v-139.636q0-9.309 6.982-16.291t16.291-6.982zM768.001 558.546h232.727q9.309 0 16.291 6.982t6.982 16.291v139.636q0 9.309-6.982 16.291t-16.291 6.982h-232.727q-9.309 0-16.291-6.982t-6.982-16.291v-139.636q0-9.309 6.982-16.291t16.291-6.982zM23.272 837.819h232.727q9.309 0 16.291 6.982t6.982 16.291v139.636q0 9.309-6.982 16.291t-16.291 6.982h-232.727q-9.309 0-16.291-6.982t-6.982-16.291v-139.636q0-9.309 6.982-16.291t16.291-6.982zM395.637 837.819h232.727q9.309 0 16.291 6.982t6.982 16.291v139.636q0 9.309-6.982 16.291t-16.291 6.982h-232.727q-9.309 0-16.291-6.982t-6.982-16.291v-139.636q0-9.309 6.982-16.291t16.291-6.982zM768.001 837.819h232.727q9.309 0 16.291 6.982t6.982 16.291v139.636q0 9.309-6.982 16.291t-16.291 6.982h-232.727q-9.309 0-16.291-6.982t-6.982-16.291v-139.636q0-9.309 6.982-16.291t16.291-6.982z"></path>
</svg>
