<svg version="1.1" xmlns="http://www.w3.org/2000/svg" width="16" height="16" viewBox="0 0 1024 1024">
    <path d="M1024 42.666v938.667h-1024v-938.667h1024zM170.667 128h-85.333v85.333h85.333v-85.333zM768 128h-512v341.333h512v-341.333zM938.667 128h-85.333v85.333h85.333v-85.333zM170.667 298.666h-85.333v85.333h85.333v-85.333zM938.667 298.666h-85.333v85.333h85.333v-85.333zM170.667 469.333h-85.333v85.333h85.333v-85.333zM938.667 469.333h-85.333v85.333h85.333v-85.333zM768 554.666h-512v341.333h512v-341.333zM170.667 640h-85.333v85.333h85.333v-85.333zM938.667 640h-85.333v85.333h85.333v-85.333zM170.667 810.666h-85.333v85.333h85.333v-85.333zM938.667 810.666h-85.333v85.333h85.333v-85.333z"></path>
</svg>
