<svg version="1.1" xmlns="http://www.w3.org/2000/svg" width="16" height="16" viewBox="0 0 1024 1024">
    <path d="M341.333 255.999h-256v-256h256v256zM938.667 255.999h-256v-256h256v256zM938.667 341.332v170.667q0 35.84-2.56 70.827t-12.8 88.747-26.88 98.987-49.493 93.44-75.947 82.347-110.080 55.893-148.907 21.76-148.907-21.76-110.080-55.893-75.947-82.347-49.493-93.44-26.88-98.987-12.8-88.747-2.56-70.827v-170.667h256v213.333q0 96.427 5.12 123.733 14.507 78.507 87.040 99.84 33.28 9.387 78.507 9.387 31.573 0 56.747-4.693t42.667-13.227 30.72-20.48 20.48-26.88 11.947-32 5.973-35.84 2.133-38.4 0-40.107v-234.667h256z"></path>
</svg>
