<svg version="1.1" xmlns="http://www.w3.org/2000/svg" width="16" height="16" viewBox="0 0 1024 1024">
    <path d="M456.029 927.148l56.112 48.793 420.434-415.555q54.485-54.485 77.256-127.675t8.946-148.819q-13.011-70.75-54.485-125.235t-105.718-83.761q-56.112-26.836-123.61-26.836-87.015 0-160.204 44.727-32.528 19.517-90.267 77.256l-416.369 416.369q-55.299 55.299-65.871 132.554t28.463 140.687q28.463 46.353 76.442 72.377t104.905 26.023q51.233 0 96.773-22.77 26.836-13.011 52.86-32.935t42.694-37.002 48.386-52.046q32.528-35.782 46.353-49.606l320.408-320.408q28.463-28.463 38.222-68.31t-2.44-78.069q-21.957-70.75-95.147-84.575-16.265-1.627-23.584-1.627-37.408 0-64.651 13.825t-54.892 41.474l-321.222 327.727 56.112 54.485 306.584-303.33q16.265-17.891 31.716-30.903 18.704-18.704 40.661-18.704 30.903 0 43.101 29.276 13.011 31.716-16.265 60.991l-444.831 444.831q-42.287 42.287-101.653 42.287-44.727 0-81.322-26.836t-43.914-78.069q-4.066-28.463 2.033-53.672t25.616-51.233 34.155-40.661 45.541-43.914q19.517-17.078 35.782-33.342l283-283q42.287-42.287 67.091-64.651t68.31-43.914 87.421-21.55q20.33 0 39.035 3.253 77.256 13.825 125.235 76.849t41.474 142.72q-5.692 82.135-79.696 156.138l-204.931 202.492-205.744 208.184z"></path>
</svg>
