<svg version="1.1" xmlns="http://www.w3.org/2000/svg" width="16" height="16" viewBox="0 0 1024 1024">
    <path d="M465.453 46.544v372.364q0 19.549-13.498 33.047t-33.047 13.498h-372.364q-19.549 0-33.047-13.498t-13.498-33.047v-372.364q0-19.549 13.498-33.047t33.047-13.498h372.364q19.549 0 33.047 13.498t13.498 33.047zM1023.999 46.544v372.364q0 19.549-13.498 33.047t-33.047 13.498h-372.364q-19.549 0-33.047-13.498t-13.498-33.047v-372.364q0-19.549 13.498-33.047t33.047-13.498h372.364q19.549 0 33.047 13.498t13.498 33.047zM465.453 605.091v372.364q0 19.549-13.498 33.047t-33.047 13.498h-372.364q-19.549 0-33.047-13.498t-13.498-33.047v-372.364q0-19.549 13.498-33.047t33.047-13.498h372.364q19.549 0 33.047 13.498t13.498 33.047zM1023.999 605.091v372.364q0 19.549-13.498 33.047t-33.047 13.498h-372.364q-19.549 0-33.047-13.498t-13.498-33.047v-372.364q0-19.549 13.498-33.047t33.047-13.498h372.364q19.549 0 33.047 13.498t13.498 33.047z"></path>
</svg>
