<svg version="1.1" xmlns="http://www.w3.org/2000/svg" width="16" height="16" viewBox="0 0 1024 1024">
    <path d="M279.272 46.545v186.182q0 19.549-13.498 33.047t-33.047 13.498h-186.182q-19.549 0-33.047-13.498t-13.498-33.047v-186.182q0-19.549 13.498-33.047t33.047-13.498h186.182q19.549 0 33.047 13.498t13.498 33.047zM651.636 46.545v186.182q0 19.549-13.498 33.047t-33.047 13.498h-186.182q-19.549 0-33.047-13.498t-13.498-33.047v-186.182q0-19.549 13.498-33.047t33.047-13.498h186.182q19.549 0 33.047 13.498t13.498 33.047zM1024 46.545v186.182q0 19.549-13.498 33.047t-33.047 13.498h-186.182q-19.549 0-33.047-13.498t-13.498-33.047v-186.182q0-19.549 13.498-33.047t33.047-13.498h186.182q19.549 0 33.047 13.498t13.498 33.047zM279.272 418.909v186.182q0 19.549-13.498 33.047t-33.047 13.498h-186.182q-19.549 0-33.047-13.498t-13.498-33.047v-186.182q0-19.549 13.498-33.047t33.047-13.498h186.182q19.549 0 33.047 13.498t13.498 33.047zM651.636 418.909v186.182q0 19.549-13.498 33.047t-33.047 13.498h-186.182q-19.549 0-33.047-13.498t-13.498-33.047v-186.182q0-19.549 13.498-33.047t33.047-13.498h186.182q19.549 0 33.047 13.498t13.498 33.047zM1024 418.909v186.182q0 19.549-13.498 33.047t-33.047 13.498h-186.182q-19.549 0-33.047-13.498t-13.498-33.047v-186.182q0-19.549 13.498-33.047t33.047-13.498h186.182q19.549 0 33.047 13.498t13.498 33.047zM279.272 791.273v186.182q0 19.549-13.498 33.047t-33.047 13.498h-186.182q-19.549 0-33.047-13.498t-13.498-33.047v-186.182q0-19.549 13.498-33.047t33.047-13.498h186.182q19.549 0 33.047 13.498t13.498 33.047zM651.636 791.273v186.182q0 19.549-13.498 33.047t-33.047 13.498h-186.182q-19.549 0-33.047-13.498t-13.498-33.047v-186.182q0-19.549 13.498-33.047t33.047-13.498h186.182q19.549 0 33.047 13.498t13.498 33.047zM1024 791.273v186.182q0 19.549-13.498 33.047t-33.047 13.498h-186.182q-19.549 0-33.047-13.498t-13.498-33.047v-186.182q0-19.549 13.498-33.047t33.047-13.498h186.182q19.549 0 33.047 13.498t13.498 33.047z"></path>
</svg>
