<svg version="1.1" xmlns="http://www.w3.org/2000/svg" width="16" height="16" viewBox="0 0 1024 1024">
    <path d="M597.334 981.333h-42.667q-23.040 0-43.52-17.067t-32.427-40.96l-81.92-168.96-123.733-167.253q-17.067-22.187-17.067-53.76v-341.334q0-64 85.333-64h52.053q104.96-85.333 118.613-85.333h213.333q39.253 0 70.827 48.64l203.093 293.548q24.747 26.453 24.747 63.147v85.333q0 37.547-26.027 72.107t-59.307 34.56h-279.894q23.893 100.693 23.893 106.667v128q0 37.547-26.027 72.107t-59.307 34.56zM170.667 639.999h-170.667v-512.001h170.667v512.001zM597.334 746.665l-42.667-192h384.001v-106.667l-213.333-320.001h-182.613l-116.053 85.333h-85.333v320.001l128 180.907 85.333 181.76h42.667v-149.333z"></path>
</svg>
