<svg version="1.1" xmlns="http://www.w3.org/2000/svg" width="16" height="16" viewBox="0 0 1024 1024">
    <path d="M888.928 890.297l5.476-7.302q129.597-162.452 129.597-369.626 0-209.911-131.422-372.364l-5.476-7.302-75.751 58.41 6.388 7.302q112.257 137.811 112.257 313.954 0 172.492-108.606 309.39l-6.388 7.302zM273.797 329.014l273.797-182.532v730.125l-273.797-182.532h-273.797v-365.062h273.797zM640.685 276.992l62.973-48.371q101.305 123.209 101.305 282.923 0 155.152-96.741 276.535l-61.148-50.196q78.489-100.393 78.489-226.339 0-132.335-84.877-234.553z"></path>
</svg>
