<svg version="1.1" xmlns="http://www.w3.org/2000/svg" width="16" height="16" viewBox="0 0 1024 1024">
    <path d="M541.438 0.001h128q8.533 0 14.933 6.4t6.4 14.933v93.013q67.413 28.16 111.787 74.667t45.227 109.653q0.853 39.253-12.8 72.107t-33.28 52.053-39.253 32.427-33.28 18.347l-14.507 5.12q5.12 0 12.8 1.28t29.867 7.68 42.667 14.933 45.227 25.6 42.667 38.4 30.293 54.613 12.373 71.68q0 50.347-9.813 90.027t-24.32 65.28-37.547 43.52-42.24 26.88-46.507 13.653-42.24 5.547-37.12 0.853v64q0 8.533-6.4 14.933t-14.933 6.4h-128q-8.533 0-14.933-6.4t-6.4-14.933v-64h-85.333v64q0 8.533-6.4 14.933t-14.933 6.4h-128q-8.533 0-14.933-6.4t-6.4-14.933v-64h-149.333q-8.533 0-14.933-6.4t-6.4-14.933v-128q0-8.533 6.4-14.933t14.933-6.4h64v-512h-64q-8.533 0-14.933-6.4t-6.4-14.933v-128q0-8.533 6.4-14.933t14.933-6.4h149.333v-64q0-8.533 6.4-14.933t14.933-6.4h128q8.533 0 14.933 6.4t6.4 14.933v64h85.333v-64q0-8.533 6.4-14.933t14.933-6.4zM349.438 256.001v170.667h224.427q23.893 0 41.387-8.96t25.6-21.333 12.8-24.747 4.693-21.76l0.853-8.533q0-3.413-0.427-9.387t-5.12-20.48-12.8-25.6-25.6-20.48-41.387-9.387h-224.427zM349.438 597.334v170.667h309.76q23.893 0 41.387-8.96t25.6-21.333 12.8-24.747 4.693-21.76l0.853-8.533q0-3.413-0.427-9.387t-5.12-20.48-12.8-25.6-25.6-20.48-41.387-9.387h-309.76z"></path>
</svg>
