<svg version="1.1" xmlns="http://www.w3.org/2000/svg" width="16" height="16" viewBox="0 0 1024 1024">
    <path d="M945.41 826.361v-668.016q0-16.504 11.395-27.899t27.899-11.395q15.718 0 27.507 11.395t11.789 27.899v668.016q0 15.718-11.789 27.507t-27.507 11.789q-16.504 0-27.899-11.789t-11.395-27.507zM336.335 354.819l530.484-196.475v668.016l-530.484-157.181h-29.865l36.938 216.909q1.572 9.431-2.358 13.753t-8.645 4.715-16.504 0.393h-71.517q-15.718 0-27.114-11.003t-14.539-27.507q-44.011-264.849-44.011-275.852v-200.405q0-10.216 0.393-14.539t1.964-10.216 6.288-8.252 11.789-2.358h157.181zM1.541 512v-39.295q0-18.862 19.647-38.509t39.295-29.865l19.647-10.216v196.475l-8.645-4.322t-18.862-11.003-23.577-16.897-18.862-21.613-8.645-24.756z"></path>
</svg>
