<svg version="1.1" xmlns="http://www.w3.org/2000/svg" width="16" height="16" viewBox="0 0 1024 1024">
    <path d="M412.097 884.403l33.896 134.689q35.679 4.46 66.007 4.46 24.084 0 66.007-4.46l33.896-134.689 5.352-1.784q41.031-11.595 82.954-34.787l4.46-2.676 119.526 72.251q49.951-39.248 92.767-93.658l-71.359-119.526 2.676-4.46q21.408-39.248 34.787-82.954l0.892-5.352 135.582-33.896q4.46-35.679 4.46-66.007 0-24.975-4.46-65.114l-135.582-33.896-0.892-5.352q-14.271-45.491-34.787-82.954l-2.676-4.46 71.359-119.526q-39.248-51.735-92.767-93.658l-119.526 72.251-4.46-2.676q-40.139-22.299-82.954-34.787l-5.352-0.892-33.896-135.582q-35.679-4.46-66.007-4.46-24.084 0-66.007 4.46l-33.896 135.582-4.46 0.892q-44.6 12.488-83.846 34.787l-4.46 2.676-118.634-72.251q-52.627 41.924-93.658 93.658l71.359 119.526-2.676 4.46q-22.299 41.924-33.896 82.954l-1.784 5.352-134.689 33.896q-5.352 42.815-5.352 65.114 0 29.435 5.352 66.007l134.689 33.896 1.784 5.352q12.488 43.707 33.896 82.954l2.676 4.46-71.359 119.526q40.139 52.627 93.658 93.658l118.634-72.251 4.46 2.676q40.139 23.192 83.846 34.787zM511.999 320.669q79.387 0 135.582 56.195t56.195 134.689q0 79.387-56.195 135.582t-135.582 56.195-135.582-56.195-56.195-135.582q0-78.494 56.195-134.689t135.582-56.195z"></path>
</svg>
