<svg version="1.1" xmlns="http://www.w3.org/2000/svg" width="16" height="16" viewBox="0 0 1024 1024">
    <path d="M846.787 838.838l46.758 137.468q-38.342 23.379-75.28 34.134t-55.175 12.157-57.512 1.403q-21.509 0-119.701-30.86t-144.95-27.12q-36.471 3.74-76.683 15.898t-61.72 23.379l-22.444 10.287-51.433-135.598 15.43-10.287t14.495-9.351 12.625-8.884 13.559-11.222 13.559-13.093 16.365-17.301q44.888-51.433 50.499-118.298t-28.055-133.26h-206.67v-93.516h155.236q-22.444-45.822-41.147-97.257-9.351-24.314-13.559-51.901t-2.805-67.799 23.379-84.164 64.058-81.359q90.71-82.294 245.947-82.294 120.635 0 215.087 83.23t94.451 194.513h-143.079q0-48.628-31.795-83.696t-69.202-48.161-71.072-13.093q-34.601 0-73.877 13.559t-57.98 33.198q-38.342 41.147-38.342 94.451 0 10.287 2.338 22.912t5.143 22.444 8.884 24.781 9.819 23.379 13.093 25.717 13.093 23.847 14.495 25.249 12.625 22.444h226.309v93.516h-184.227q7.482 46.758-2.338 107.543t-29.458 87.905q-38.342 55.175-92.581 105.673 32.731-10.287 78.553-16.833t65.461-6.546q29.925-0.935 95.386 14.962t97.257 15.898q71.072 0 127.181-28.055z"></path>
</svg>
