<svg version="1.1" xmlns="http://www.w3.org/2000/svg" width="16" height="16" viewBox="0 0 1024 1024">
    <path d="M911.522 649.693v-270.64q0-11.87-15.827-22.553t-32.445-15.431l-268.266-103.666v-83.882q0-66.473-30.862-109.997t-87.839-43.524-87.048 42.337-30.071 109.602v238.986l-95.752-66.473q-11.87-9.496-26.51-9.1t-25.718 10.683l-88.63 87.048q-17.409 17.409-4.748 41.942l182.010 287.258q3.165 4.748 8.309 12.266t20.575 19.783 28.884 12.266h415.456q10.287 0 74.386-65.682t64.099-71.221zM761.958 707.462h-398.047l-186.758-268.266 65.682-68.056 144.816 115.537q17.409 14.244 37.194 3.957 2.374-0.791 4.352-2.77l3.165-3.165t1.978-3.957 1.187-4.352 0.791-5.144 0.396-4.748v-372.327q0-17.409 19.783-24.531t39.568 0.396 19.783 24.136v159.851q0 12.661 15.827 23.344t32.445 15.431l268.266 102.875v232.655zM832.387 865.73v158.269h-474.807v-158.269h474.807z"></path>
</svg>
