<svg version="1.1" xmlns="http://www.w3.org/2000/svg" width="16" height="16" viewBox="0 0 1024 1024">
    <path d="M1024 315.076v393.847q0 97.674-69.317 166.991t-166.991 69.317h-551.384q-97.674 0-166.991-69.317t-69.317-166.991v-393.847q0-97.674 69.317-166.991t166.991-69.317h551.384q97.674 0 166.991 69.317t69.317 166.991zM866.462 236.307h-708.923v551.384h708.923v-551.384zM393.846 472.615h-78.769v-157.539h-78.769v393.847h78.769v-157.539h78.769v157.539h78.769v-393.847h-78.769v157.539zM708.924 315.076h-157.539v393.847h157.539v-78.769h78.769v-236.308h-78.769v-78.769zM708.924 393.846v236.308h-78.769v-236.308h78.769z"></path>
</svg>
