<svg version="1.1" xmlns="http://www.w3.org/2000/svg" width="16" height="16" viewBox="0 0 1024 1024">
    <path d="M408.6 673.772l15.843 14.176 87.557-87.557-176.782-176.782 324.378-324.378 205.967 205.967-79.219 80.052 15.010 15.010q38.358 38.358 64.209 82.554l24.183-24.183q29.186-29.186 52.117-73.381t22.932-80.052q0-77.55-55.036-132.586l-117.576-117.576q-55.036-55.036-132.586-55.036-79.219 0-132.586 55.036l-235.987 235.987q-55.036 53.368-55.036 132.586 0 77.55 55.036 132.586zM114.241 851.388l117.576 117.576q55.036 55.036 132.586 55.036 79.219 0 132.586-55.036l235.987-235.987q55.036-55.036 55.036-132.586t-55.036-132.586l-117.576-117.576q-10.007-10.007-15.843-14.176l-87.557 87.557 176.782 176.782-324.378 324.378-205.967-206.802 79.219-79.219-15.010-15.010q-38.358-37.524-62.541-84.222l-45.863 45.863q-55.036 55.036-55.036 132.586 0 78.384 55.036 133.42z"></path>
</svg>
