<svg version="1.1" xmlns="http://www.w3.org/2000/svg" width="16" height="16" viewBox="0 0 1024 1024">
    <path d="M599 391.503v-348.004q0-18.27-12.615-30.885t-30.885-12.615h-87.001q-18.27 0-30.885 12.615t-12.615 30.885v348.004q0 18.27 12.615 30.885t30.885 12.615h87.001q18.27 0 30.885-12.615t12.615-30.885zM686.001 195.751v-144.421q145.292 53.941 236.643 182.702t91.351 287.973q0 102.661-39.586 195.317t-107.011 160.081-160.081 107.011-195.317 39.586-195.317-39.586-160.081-107.011-107.011-160.081-39.586-195.317q0-159.212 91.351-287.973t236.643-182.702v144.421q-89.611 47.85-143.552 134.852t-53.941 191.402q0 153.992 108.752 262.743t262.743 108.752 262.743-108.752 108.752-262.743q0-104.401-53.941-191.402t-143.552-134.852z"></path>
</svg>
