<svg version="1.1" xmlns="http://www.w3.org/2000/svg" width="16" height="16" viewBox="0 0 1024 1024">
    <path d="M512 0q57.717 0 98.676 40.96t40.96 98.676-40.96 98.676-98.676 40.96-98.676-40.96-40.96-98.676 40.96-98.676 98.676-40.96zM512 372.364q57.717 0 98.676 40.96t40.96 98.676-40.96 98.676-98.676 40.96-98.676-40.96-40.96-98.676 40.96-98.676 98.676-40.96zM512 744.728q57.717 0 98.676 40.96t40.96 98.676-40.96 98.676-98.676 40.96-98.676-40.96-40.96-98.676 40.96-98.676 98.676-40.96z"></path>
</svg>
