<svg version="1.1" xmlns="http://www.w3.org/2000/svg" width="16" height="16" viewBox="0 0 1024 1024">
    <path d="M512 8.107q64 0 109.227 45.227t45.227 109.227-45.227 109.227-109.227 45.227-109.227-45.227-45.227-109.227 45.227-109.227 109.227-45.227zM513.707 334.934h39.253q29.013 0 47.36 24.32t18.347 73.813q0 64.853 33.28 156.16h-276.48q33.28-91.307 33.28-156.16 0-49.493 18.347-73.813t48.213-24.32h38.4zM213.333 674.561h597.333q17.92 0 30.293 12.373t12.373 30.293-12.373 30.293-30.293 12.373h-11.093l117.76 85.333h-810.667l116.907-85.333h-10.24q-17.92 0-30.293-12.373t-12.373-30.293 12.373-30.293 30.293-12.373zM42.667 930.561h938.667q17.92 0 30.293 12.373t12.373 30.293v42.667h-1024v-42.667q0-17.92 12.373-30.293t30.293-12.373z"></path>
</svg>
