<svg version="1.1" xmlns="http://www.w3.org/2000/svg" width="16" height="16" viewBox="0 0 1024 1024">
    <path d="M641.866 423.359l314.274 281.374q12.987 12.121 22.51 33.332t9.524 38.526v35.497q0 17.316-10.389 22.943t-25.108-4.761l-310.811-215.576v227.697q86.576 78.785 86.576 97.832v55.409q0 18.181-11.255 25.108t-27.705-0.865l-81.382-67.53h-192.2l-81.382 67.53q-16.449 7.792-27.705 0.865t-11.255-25.108v-55.409q0-19.047 86.576-97.832v-227.697l-310.811 215.576q-14.718 10.389-25.108 4.761t-10.389-22.943v-35.497q0-17.316 9.524-38.526t22.51-33.332l314.274-281.374v-293.495q0-53.678 38.094-91.771t91.771-38.094 91.771 38.094 38.094 91.771v293.495z"></path>
</svg>
