<svg version="1.1" xmlns="http://www.w3.org/2000/svg" width="16" height="16" viewBox="0 0 1024 1024">
    <path d="M761.37 637.327l256.642 256.642q5.988 6.844 5.988 15.399t-5.988 15.399l-93.246 93.246q-6.844 5.988-15.399 5.988t-15.399-5.988l-256.642-256.642q-101.802 66.727-223.278 66.727-171.095 0-292.572-121.477t-121.477-292.572 121.477-292.572 292.572-121.477 292.572 121.477 121.477 292.572q0 121.477-66.727 223.278zM130.887 414.049q0 116.344 82.981 199.325t200.181 82.981 199.753-82.553 82.553-199.753-82.553-199.753-199.753-82.553-200.181 82.981-82.981 199.325z"></path>
</svg>
