<svg version="1.1" xmlns="http://www.w3.org/2000/svg" width="16" height="16" viewBox="0 0 1024 1024">
    <path d="M1024 315.076v393.847q0 97.674-69.317 166.991t-166.991 69.317h-551.384q-97.674 0-166.991-69.317t-69.317-166.991v-393.847q0-97.674 69.317-166.991t166.991-69.317h551.384q97.674 0 166.991 69.317t69.317 166.991zM866.462 236.307h-708.923v551.384h708.923v-551.384zM236.308 315.076v236.308h157.539v78.769h-157.539v78.769h236.308v-236.308h-157.539v-78.769h157.539v-78.769h-236.308zM708.924 708.923h78.769v-393.847h-157.539v78.769h78.769v315.077zM552.172 708.923h78.769v-78.769h-78.769v78.769z"></path>
</svg>
